<?xml version="1.0" encoding="UTF-8"?>
<svg xmlns="http://www.w3.org/2000/svg" xmlns:xlink="http://www.w3.org/1999/xlink" width="64pt" height="64pt" viewBox="0 0 64 64" version="1.1">
<g id="surface1">
<path style=" stroke:none;fill-rule:evenodd;fill:rgb(0%,0%,0%);fill-opacity:1;" d="M 51.570312 25.933594 C 51.570312 25.804688 51.550781 25.300781 51.550781 25.105469 C 51.578125 23.585938 51.179688 21.511719 50.96875 20.472656 C 50.476562 18.507812 49.894531 16.800781 48.953125 15.316406 C 48.640625 14.816406 47.640625 13.621094 47.417969 13.574219 C 47.410156 13.574219 47.40625 13.582031 47.40625 13.585938 C 47.257812 14.785156 47.109375 15.988281 46.964844 17.183594 C 46.929688 17.476562 46.898438 17.773438 46.867188 18.066406 C 46.726562 19.089844 46.59375 20.113281 46.453125 21.144531 C 46.355469 21.726562 46.285156 22.328125 46.1875 22.816406 C 46.152344 23.019531 46.113281 23.230469 46.066406 23.4375 C 46.078125 23.960938 46.789062 24.414062 46.414062 24.84375 C 46.035156 25.152344 45.726562 25.523438 45.496094 25.855469 C 45.371094 26.066406 45.234375 26.277344 45.105469 26.488281 C 45.121094 24.980469 45.132812 23.578125 44.960938 22.378906 C 44.75 21.105469 44.25 19.742188 44.734375 18.816406 C 44.945312 17.8125 44.664062 16.363281 44.429688 15.589844 C 43.691406 13.203125 42.824219 11.046875 41.535156 9.222656 C 40.882812 8.34375 40.550781 7.878906 39.808594 7.449219 C 39.796875 7.585938 39.617188 9.195312 39.519531 10.0625 C 39.398438 11.1875 39.277344 12.320312 39.148438 13.445312 C 38.929688 15.015625 38.90625 16.574219 38.96875 17.183594 C 39.046875 17.675781 39.4375 17.5625 38.808594 18.417969 C 38.15625 19.1875 37.492188 20.472656 37.160156 21.496094 C 36.824219 19.179688 35.960938 17.875 35.640625 17.394531 C 35.386719 17.003906 35.71875 16.269531 35.78125 15.96875 C 35.988281 14.785156 35.617188 13.363281 35.519531 12.902344 C 34.867188 9.785156 34.292969 6.679688 32.730469 4.460938 C 32.511719 4.179688 32.3125 3.960938 32.03125 3.667969 C 31.75 3.960938 31.550781 4.179688 31.335938 4.460938 C 29.777344 6.675781 29.203125 9.785156 28.542969 12.902344 C 28.449219 13.363281 28.078125 14.789062 28.28125 15.96875 C 28.34375 16.269531 28.679688 17.011719 28.421875 17.394531 C 28.101562 17.867188 27.238281 19.179688 26.90625 21.496094 C 26.574219 20.472656 25.90625 19.1875 25.253906 18.417969 C 24.628906 17.566406 25.019531 17.675781 25.09375 17.183594 C 25.160156 16.582031 25.140625 15.015625 24.914062 13.445312 C 24.792969 12.320312 24.671875 11.1875 24.542969 10.0625 C 24.449219 9.195312 24.269531 7.585938 24.257812 7.449219 C 23.519531 7.878906 23.179688 8.34375 22.527344 9.222656 C 21.234375 11.039062 20.371094 13.195312 19.636719 15.589844 C 19.398438 16.363281 19.109375 17.816406 19.328125 18.816406 C 19.8125 19.742188 19.320312 21.105469 19.105469 22.378906 C 18.9375 23.578125 18.949219 24.980469 18.957031 26.488281 C 18.828125 26.277344 18.695312 26.066406 18.566406 25.855469 C 18.328125 25.523438 18.023438 25.144531 17.652344 24.84375 C 17.273438 24.414062 17.984375 23.96875 17.996094 23.4375 C 17.957031 23.230469 17.921875 23.019531 17.875 22.816406 C 17.777344 22.335938 17.707031 21.726562 17.613281 21.144531 C 17.472656 20.121094 17.335938 19.097656 17.195312 18.066406 C 17.164062 17.773438 17.132812 17.476562 17.101562 17.183594 C 16.953125 15.988281 16.804688 14.785156 16.660156 13.585938 C 16.660156 13.582031 16.660156 13.574219 16.644531 13.574219 C 16.421875 13.621094 15.425781 14.816406 15.109375 15.316406 C 14.175781 16.800781 13.585938 18.507812 13.09375 20.472656 C 12.882812 21.515625 12.488281 23.585938 12.511719 25.113281 C 12.511719 25.3125 12.5 25.816406 12.492188 25.9375 C 12.472656 26.925781 12.171875 28.488281 12.34375 30.347656 C 12.410156 30.929688 12.402344 31.019531 12.59375 31.820312 C 12.859375 32.890625 13.132812 33.691406 13.703125 34.433594 C 13.742188 34.484375 13.753906 34.515625 13.792969 34.578125 C 14.144531 35.1875 13.992188 36.429688 13.777344 36.789062 C 13.761719 36.824219 13.726562 36.882812 13.703125 36.921875 C 13.53125 37.152344 13.484375 37.554688 13.484375 37.996094 C 13.484375 38.226562 13.964844 42.707031 14.277344 43.949219 C 14.453125 44.8125 15.347656 48.992188 18.507812 53.492188 C 19.207031 54.484375 20.242188 55.65625 21.246094 56.332031 C 22.152344 56.941406 23.410156 57.300781 24.914062 57.300781 C 25.761719 57.300781 26.539062 57.304688 27.097656 57.050781 C 27.265625 57.214844 27.128906 58.132812 27.179688 58.457031 C 27.277344 59.117188 27.367188 59.386719 27.789062 59.710938 C 28.363281 60.152344 28.992188 60.121094 29.886719 60.261719 C 30.386719 60.339844 32.019531 60.34375 32.019531 60.34375 C 32.027344 60.34375 32.058594 60.34375 32.0625 60.34375 C 32.863281 60.351562 33.695312 60.332031 34.195312 60.261719 C 35.089844 60.128906 35.71875 60.152344 36.292969 59.710938 C 36.71875 59.386719 36.804688 59.117188 36.902344 58.457031 C 36.953125 58.132812 36.820312 57.214844 36.984375 57.050781 C 37.542969 57.304688 38.316406 57.300781 39.167969 57.300781 C 40.664062 57.300781 41.925781 56.941406 42.835938 56.332031 C 43.839844 55.660156 44.875 54.484375 45.574219 53.492188 C 48.734375 48.992188 49.632812 44.8125 49.804688 43.949219 C 50.117188 42.707031 50.597656 38.226562 50.597656 37.996094 C 50.597656 37.554688 50.554688 37.160156 50.378906 36.921875 C 50.355469 36.882812 50.316406 36.824219 50.304688 36.789062 C 50.09375 36.429688 49.9375 35.1875 50.292969 34.578125 C 50.324219 34.515625 50.34375 34.484375 50.378906 34.433594 C 50.949219 33.691406 51.226562 32.882812 51.488281 31.820312 C 51.6875 31.019531 51.671875 30.929688 51.738281 30.347656 C 51.886719 28.472656 51.589844 26.917969 51.570312 25.933594 M 21.144531 16.167969 C 21.703125 14.15625 22.363281 12.378906 23.207031 10.695312 C 23.296875 10.796875 23.589844 15.9375 23.511719 16.441406 C 23.417969 16.492188 23.238281 16.472656 23.128906 16.511719 C 22.859375 16.609375 22.597656 16.761719 22.378906 16.914062 C 21.796875 17.324219 21.363281 17.902344 20.804688 18.296875 L 20.800781 18.296875 C 20.71875 18.144531 21.019531 16.640625 21.144531 16.167969 M 22.917969 19.390625 C 24.429688 19.289062 25.824219 21.734375 26.035156 24.84375 C 26.246094 27.960938 25.191406 30.566406 23.6875 30.667969 C 22.175781 30.769531 20.78125 28.328125 20.570312 25.214844 C 20.359375 22.105469 21.40625 19.496094 22.917969 19.390625 M 13.707031 24.59375 C 13.847656 22.875 14.277344 18.816406 15.800781 16.351562 C 15.851562 17.84375 16.511719 23.257812 16.511719 23.300781 C 15.589844 23.398438 14.304688 23.742188 13.707031 24.59375 M 13.84375 30.699219 C 13.355469 27.429688 14.625 26.238281 15 26.023438 C 15.488281 25.671875 16.511719 25.542969 17.675781 27.890625 C 18.945312 30.867188 18.554688 33.246094 17.09375 33.953125 C 15.367188 34.546875 14.246094 32.644531 13.84375 30.699219 M 26.546875 55.257812 C 26.292969 55.46875 25.664062 55.742188 25.121094 55.75 C 24.644531 55.730469 23.054688 55.648438 22.445312 55.257812 C 21.761719 54.867188 20.378906 53.546875 19.148438 51.511719 C 17.785156 49.425781 16.683594 46.636719 16.03125 44.160156 C 15.832031 43.410156 15.105469 39.621094 15.140625 38.414062 C 15.140625 38.117188 15.238281 37.9375 15.410156 37.832031 C 17.773438 36.570312 21.671875 34.769531 24.859375 34.398438 C 26.375 34.433594 26.714844 35.265625 27.085938 36.007812 C 27.9375 37.703125 27.6875 40.402344 27.355469 41.976562 C 27.15625 42.925781 26.4375 43.578125 26.015625 43.9375 C 25.652344 44.238281 25.742188 44.5625 26.0625 44.734375 C 26.324219 44.910156 27.648438 45.601562 28.0625 48.972656 C 28.378906 53.210938 27.511719 54.398438 26.546875 55.257812 M 31.980469 6.144531 L 32.042969 5.992188 L 32.109375 6.144531 C 32.109375 6.144531 33.902344 11 34.238281 15.195312 C 34.238281 15.238281 34.207031 15.269531 34.167969 15.25 C 32.058594 14.707031 31.988281 14.714844 29.972656 15.238281 C 29.902344 15.269531 29.855469 15.210938 29.863281 15.160156 C 30.203125 10.976562 31.980469 6.144531 31.980469 6.144531 M 32.011719 17.121094 C 33.972656 17.121094 35.410156 19.839844 35.410156 23.078125 C 35.410156 26.316406 34.316406 29.445312 32.011719 29.445312 C 29.707031 29.445312 28.613281 26.324219 28.613281 23.078125 C 28.613281 19.832031 30.054688 17.121094 32.011719 17.121094 M 35.277344 35.46875 C 35.210938 35.546875 34.839844 35.640625 34.828125 36.628906 C 34.824219 36.773438 34.808594 37.054688 34.808594 37.054688 L 34.699219 44.652344 L 34.699219 46.125 L 34.808594 53.722656 C 34.808594 53.722656 34.824219 54.003906 34.828125 54.152344 C 34.835938 55.140625 35.207031 55.230469 35.277344 55.308594 C 35.449219 55.410156 35.460938 55.589844 35.457031 55.757812 C 35.46875 56.070312 35.457031 57.832031 35.410156 58.433594 C 35.410156 58.566406 35.355469 58.617188 35.054688 58.664062 C 34.292969 58.753906 32.632812 58.859375 32.027344 58.847656 C 31.417969 58.867188 29.765625 58.753906 29 58.664062 C 28.699219 58.617188 28.640625 58.574219 28.640625 58.433594 C 28.59375 57.832031 28.582031 56.078125 28.59375 55.757812 C 28.589844 55.589844 28.601562 55.417969 28.773438 55.308594 C 28.839844 55.230469 29.210938 55.136719 29.222656 54.152344 C 29.230469 54.003906 29.242188 53.722656 29.242188 53.722656 L 29.351562 46.125 L 29.351562 44.652344 L 29.242188 37.054688 C 29.242188 37.054688 29.230469 36.773438 29.222656 36.628906 C 29.214844 35.636719 28.84375 35.546875 28.773438 35.46875 C 28.601562 35.367188 28.589844 35.1875 28.59375 35.019531 C 28.582031 34.707031 28.59375 32.945312 28.640625 32.34375 C 28.640625 32.210938 28.699219 32.160156 29 32.113281 C 29.761719 32.027344 31.417969 31.917969 32.027344 31.929688 C 32.632812 31.910156 34.285156 32.027344 35.054688 32.113281 C 35.355469 32.160156 35.410156 32.203125 35.410156 32.34375 C 35.457031 32.945312 35.46875 34.699219 35.457031 35.019531 C 35.46875 35.1875 35.457031 35.367188 35.277344 35.46875 M 40.800781 10.699219 C 41.652344 12.382812 42.308594 14.15625 42.859375 16.171875 C 42.988281 16.644531 43.289062 18.144531 43.207031 18.304688 L 43.195312 18.304688 C 42.636719 17.90625 42.207031 17.332031 41.621094 16.921875 C 41.402344 16.769531 41.140625 16.609375 40.871094 16.519531 C 40.761719 16.480469 40.582031 16.492188 40.488281 16.449219 C 40.414062 15.9375 40.703125 10.804688 40.800781 10.699219 M 38.0625 24.84375 C 38.273438 21.726562 39.667969 19.289062 41.175781 19.390625 C 42.6875 19.496094 43.738281 22.097656 43.527344 25.214844 C 43.316406 28.332031 41.921875 30.769531 40.410156 30.667969 C 38.90625 30.566406 37.847656 27.960938 38.0625 24.84375 M 48.378906 42.957031 C 48.351562 43.226562 48.179688 43.28125 47.980469 43.21875 C 46.285156 42.835938 43.832031 42.277344 43.707031 42.246094 C 43.507812 42.1875 43.230469 42.113281 43.257812 41.707031 C 43.28125 41.3125 43.289062 41.171875 43.347656 39.839844 C 43.40625 38.503906 41.53125 38.0625 41.476562 39.390625 C 41.421875 40.730469 41.132812 49.921875 41.074219 51.425781 C 41.019531 52.53125 42.804688 52.703125 42.945312 51.511719 C 43.027344 50.578125 43.078125 49.191406 43.078125 48.703125 C 43.058594 48.382812 42.90625 48.371094 42.675781 48.34375 C 42.4375 48.328125 42.363281 48.351562 42.367188 48.179688 C 42.378906 47.570312 42.433594 45.445312 42.476562 44.519531 C 42.464844 44.289062 42.539062 44.160156 42.828125 44.203125 C 43.957031 44.25 45.882812 44.550781 47.425781 44.824219 C 47.726562 44.875 47.949219 44.945312 47.761719 45.34375 C 47.097656 47.496094 46.136719 49.753906 44.984375 51.507812 C 43.757812 53.542969 42.367188 54.859375 41.691406 55.25 C 41.082031 55.640625 39.527344 55.777344 39.015625 55.742188 C 38.476562 55.738281 37.84375 55.460938 37.585938 55.25 C 36.613281 54.394531 36.070312 52.558594 36.027344 49.144531 C 35.921875 43.75 35.960938 38.566406 37.09375 36 C 37.425781 35.238281 37.761719 34.433594 39.277344 34.394531 C 42.46875 34.765625 46.367188 36.5625 48.722656 37.824219 C 48.894531 37.933594 48.992188 38.113281 48.992188 38.40625 C 49.03125 39.289062 48.660156 41.511719 48.378906 42.957031 M 50.164062 30.699219 C 49.761719 32.644531 48.640625 34.546875 46.910156 33.953125 C 45.453125 33.246094 45.0625 30.859375 46.328125 27.890625 C 47.496094 25.542969 48.519531 25.671875 49.003906 26.023438 C 49.382812 26.234375 50.648438 27.429688 50.164062 30.699219 M 47.488281 23.300781 C 47.496094 23.257812 48.152344 17.84375 48.199219 16.351562 C 49.722656 18.824219 50.15625 22.875 50.292969 24.59375 C 49.703125 23.742188 48.414062 23.398438 47.488281 23.300781 M 22.132812 46.746094 C 22.003906 46.71875 21.222656 46.726562 21.105469 46.746094 C 20.871094 46.753906 20.875 46.964844 20.882812 47.195312 C 20.863281 47.628906 20.910156 50.304688 20.929688 50.488281 C 20.929688 50.753906 20.914062 51.21875 21.242188 51.199219 C 21.421875 51.230469 21.953125 51.28125 22.308594 51.199219 C 23.140625 51.066406 23.210938 47.089844 22.132812 46.746094 M 21.0625 43 C 21.214844 42.996094 21.695312 42.980469 21.953125 42.867188 C 22.597656 42.71875 22.738281 39.089844 21.863281 39.167969 C 21.542969 39.175781 20.910156 39.195312 20.792969 39.210938 C 20.558594 39.21875 20.5625 39.429688 20.570312 39.660156 C 20.574219 40.058594 20.640625 42.414062 20.660156 42.605469 C 20.660156 42.859375 20.742188 43.019531 21.0625 43 "/>
</g>
</svg>
