<?xml version="1.0" encoding="UTF-8"?>
<svg xmlns="http://www.w3.org/2000/svg" xmlns:xlink="http://www.w3.org/1999/xlink" width="64pt" height="64pt" viewBox="0 0 64 64" version="1.1">
<defs>
<linearGradient id="linear0" gradientUnits="userSpaceOnUse" x1="-142.8823" y1="868.5229" x2="188.4538" y2="868.5229" gradientTransform="matrix(0.193005,-0.00559572,-0.00559572,-0.193005,32.166412,200.04773)">
<stop offset="0" style="stop-color:rgb(0%,65.882353%,92.54902%);stop-opacity:1;"/>
<stop offset="1" style="stop-color:rgb(5.882353%,45.882353%,74.117647%);stop-opacity:1;"/>
</linearGradient>
</defs>
<g id="surface1">
<path style=" stroke:none;fill-rule:nonzero;fill:url(#linear0);" d="M 46.136719 42.703125 C 45.363281 42.324219 44.640625 41.96875 43.917969 41.613281 C 42.496094 40.902344 41.058594 40.214844 39.636719 39.492188 C 39.246094 39.296875 39.246094 39.296875 39.367188 38.730469 C 39.785156 37.015625 40.546875 35.496094 41.671875 34.15625 C 42.996094 32.601562 44.589844 31.386719 46.480469 30.625 C 47.632812 30.148438 48.859375 29.816406 50.121094 29.78125 C 51.140625 29.757812 52.167969 29.707031 53.1875 29.792969 C 54.5 29.914062 55.773438 30.285156 57 30.835938 C 58.421875 31.484375 59.683594 32.367188 60.75 33.507812 C 61.660156 34.464844 62.355469 35.554688 62.871094 36.746094 C 63.363281 37.847656 63.707031 38.988281 63.816406 40.191406 C 63.902344 41.109375 64.035156 42.027344 63.988281 42.925781 C 63.851562 45.449219 63.105469 47.804688 61.546875 49.828125 C 59.964844 51.886719 57.917969 53.246094 55.417969 54.007812 C 53.835938 54.472656 52.207031 54.609375 50.574219 54.5 C 49.53125 54.4375 48.492188 54.128906 47.484375 53.800781 C 46.257812 53.394531 45.058594 52.867188 43.894531 52.328125 C 42.433594 51.640625 41 50.867188 39.527344 50.132812 C 37.714844 49.203125 35.898438 48.304688 34.097656 47.375 C 31.621094 46.125 29.132812 44.847656 26.65625 43.5625 C 23.566406 41.992188 20.460938 40.398438 17.347656 38.828125 C 16.378906 38.351562 15.363281 37.886719 14.332031 37.515625 C 13.070312 37.074219 11.769531 37.050781 10.519531 37.601562 C 8.753906 38.398438 7.796875 39.773438 7.6875 41.710938 C 7.589844 43.058594 7.933594 44.261719 8.804688 45.289062 C 9.671875 46.320312 10.824219 46.847656 12.175781 46.933594 C 13.265625 46.980469 14.34375 46.847656 15.324219 46.34375 C 16.648438 45.671875 17.324219 44.542969 17.617188 43.132812 C 17.703125 42.703125 17.730469 42.261719 17.777344 41.820312 C 17.816406 41.5625 17.898438 41.527344 18.132812 41.636719 C 20.191406 42.667969 22.277344 43.707031 24.363281 44.726562 C 24.65625 44.875 24.71875 45.070312 24.65625 45.363281 C 24.203125 47.152344 23.40625 48.796875 22.179688 50.207031 C 20.855469 51.726562 19.261719 52.890625 17.421875 53.628906 C 15.449219 54.414062 13.386719 54.644531 11.265625 54.472656 C 9.785156 54.339844 8.375 54.019531 7.039062 53.40625 C 5.578125 52.746094 4.292969 51.851562 3.199219 50.660156 C 1.765625 49.078125 0.847656 47.203125 0.367188 45.105469 C 0.234375 44.542969 0.195312 43.980469 0.121094 43.390625 C 0.0742188 43.082031 -0.0117188 42.765625 0 42.457031 C 0.0351562 40.398438 0.292969 38.386719 1.1875 36.5 C 2.5 33.800781 4.488281 31.839844 7.296875 30.675781 C 8.621094 30.125 10.015625 29.855469 11.425781 29.695312 C 13.449219 29.488281 15.351562 29.953125 17.214844 30.640625 C 19.480469 31.472656 21.601562 32.636719 23.773438 33.714844 C 25.230469 34.464844 26.726562 35.1875 28.199219 35.9375 C 28.652344 36.15625 29.132812 36.351562 29.585938 36.585938 C 29.804688 36.695312 29.890625 36.5625 29.964844 36.402344 C 30.382812 35.605469 30.824219 34.84375 31.226562 34.046875 C 31.949219 32.660156 32.6875 31.265625 33.410156 29.878906 C 34.242188 28.261719 35.113281 26.679688 35.898438 25.074219 C 36.390625 24.054688 36.71875 23 36.734375 21.859375 C 36.757812 19.8125 35.410156 17.949219 33.433594 17.347656 C 32.023438 16.933594 30.652344 17.019531 29.363281 17.714844 C 28.039062 18.425781 27.230469 19.542969 26.984375 21.027344 C 26.753906 22.375 26.949219 23.675781 27.609375 24.902344 C 28.148438 25.871094 28.984375 26.484375 30.050781 26.765625 C 30.664062 26.925781 31.289062 26.996094 31.902344 27.121094 C 32.367188 27.207031 32.390625 27.242188 32.183594 27.636719 C 31.203125 29.585938 30.222656 31.523438 29.242188 33.460938 C 28.972656 34.023438 28.933594 34.035156 28.335938 33.875 C 26.089844 33.273438 24.117188 32.171875 22.558594 30.46875 C 21.285156 29.082031 20.339844 27.476562 19.800781 25.660156 C 19.164062 23.550781 19.089844 21.40625 19.519531 19.261719 C 20.230469 15.839844 21.996094 13.144531 25.035156 11.328125 C 26.457031 10.484375 28.003906 9.992188 29.621094 9.6875 C 30.382812 9.550781 31.128906 9.453125 31.902344 9.464844 C 32.882812 9.515625 33.863281 9.625 34.832031 9.785156 C 36.488281 10.089844 38.007812 10.753906 39.378906 11.722656 C 41.378906 13.117188 42.777344 14.957031 43.621094 17.238281 C 44.25 18.90625 44.480469 20.609375 44.421875 22.351562 C 44.371094 23.539062 44.0625 24.703125 43.660156 25.84375 C 42.863281 28.089844 41.734375 30.199219 40.65625 32.320312 C 39.550781 34.5 38.425781 36.683594 37.296875 38.839844 C 37.136719 39.160156 36.964844 39.503906 36.78125 39.796875 C 36.632812 40.054688 36.695312 40.164062 36.953125 40.300781 C 38.570312 41.121094 40.164062 41.957031 41.785156 42.777344 C 43.832031 43.832031 45.878906 44.910156 47.9375 45.941406 C 49.054688 46.503906 50.207031 46.933594 51.457031 46.933594 C 53.566406 46.945312 55.550781 45.71875 56.164062 43.511719 C 56.582031 41.980469 56.410156 40.496094 55.464844 39.171875 C 54.644531 38.007812 53.492188 37.34375 52.046875 37.234375 C 50.992188 37.148438 49.949219 37.261719 48.945312 37.652344 C 47.804688 38.105469 47.042969 38.941406 46.652344 40.078125 C 46.441406 40.71875 46.355469 41.378906 46.222656 42.027344 C 46.210938 42.273438 46.183594 42.46875 46.136719 42.703125 Z M 46.136719 42.703125 "/>
</g>
</svg>
