<?xml version="1.0" encoding="UTF-8"?>
<svg xmlns="http://www.w3.org/2000/svg" xmlns:xlink="http://www.w3.org/1999/xlink" width="64pt" height="64pt" viewBox="0 0 64 64" version="1.1">
<defs>
<linearGradient id="linear0" gradientUnits="userSpaceOnUse" x1="831.0776" y1="-51.1082" x2="831.0776" y2="528.3507" gradientTransform="matrix(0.0533333,0,0,0.0533333,0,0)">
<stop offset="0" style="stop-color:rgb(100%,80.784314%,47.058824%);stop-opacity:1;"/>
<stop offset="0.154" style="stop-color:rgb(100%,80%,45.882353%);stop-opacity:1;"/>
<stop offset="0.2861" style="stop-color:rgb(100%,78.039216%,41.568627%);stop-opacity:1;"/>
<stop offset="0.4098" style="stop-color:rgb(100%,74.901961%,34.509804%);stop-opacity:1;"/>
<stop offset="0.4972" style="stop-color:rgb(100%,71.372549%,27.843137%);stop-opacity:1;"/>
<stop offset="0.7914" style="stop-color:rgb(100%,70.588235%,27.843137%);stop-opacity:1;"/>
<stop offset="0.8972" style="stop-color:rgb(100%,67.843137%,28.235294%);stop-opacity:1;"/>
<stop offset="0.9725" style="stop-color:rgb(100%,63.529412%,28.627451%);stop-opacity:1;"/>
<stop offset="1" style="stop-color:rgb(100%,60.784314%,28.627451%);stop-opacity:1;"/>
</linearGradient>
<linearGradient id="linear1" gradientUnits="userSpaceOnUse" x1="423.776" y1="-51.1082" x2="423.776" y2="528.3507" gradientTransform="matrix(0.0533333,0,0,0.0533333,0,0)">
<stop offset="0" style="stop-color:rgb(100%,80.784314%,47.058824%);stop-opacity:1;"/>
<stop offset="0.154" style="stop-color:rgb(100%,80%,45.882353%);stop-opacity:1;"/>
<stop offset="0.2861" style="stop-color:rgb(100%,78.039216%,41.568627%);stop-opacity:1;"/>
<stop offset="0.4098" style="stop-color:rgb(100%,74.901961%,34.509804%);stop-opacity:1;"/>
<stop offset="0.4972" style="stop-color:rgb(100%,71.372549%,27.843137%);stop-opacity:1;"/>
<stop offset="0.7914" style="stop-color:rgb(100%,70.588235%,27.843137%);stop-opacity:1;"/>
<stop offset="0.8972" style="stop-color:rgb(100%,67.843137%,28.235294%);stop-opacity:1;"/>
<stop offset="0.9725" style="stop-color:rgb(100%,63.529412%,28.627451%);stop-opacity:1;"/>
<stop offset="1" style="stop-color:rgb(100%,60.784314%,28.627451%);stop-opacity:1;"/>
</linearGradient>
<linearGradient id="linear2" gradientUnits="userSpaceOnUse" x1="401.3573" y1="-51.1082" x2="401.3573" y2="528.3507" gradientTransform="matrix(0.0533333,0,0,0.0533333,0,0)">
<stop offset="0" style="stop-color:rgb(100%,80.784314%,47.058824%);stop-opacity:1;"/>
<stop offset="0.154" style="stop-color:rgb(100%,80%,45.882353%);stop-opacity:1;"/>
<stop offset="0.2861" style="stop-color:rgb(100%,78.039216%,41.568627%);stop-opacity:1;"/>
<stop offset="0.4098" style="stop-color:rgb(100%,74.901961%,34.509804%);stop-opacity:1;"/>
<stop offset="0.4972" style="stop-color:rgb(100%,71.372549%,27.843137%);stop-opacity:1;"/>
<stop offset="0.7914" style="stop-color:rgb(100%,70.588235%,27.843137%);stop-opacity:1;"/>
<stop offset="0.8972" style="stop-color:rgb(100%,67.843137%,28.235294%);stop-opacity:1;"/>
<stop offset="0.9725" style="stop-color:rgb(100%,63.529412%,28.627451%);stop-opacity:1;"/>
<stop offset="1" style="stop-color:rgb(100%,60.784314%,28.627451%);stop-opacity:1;"/>
</linearGradient>
<linearGradient id="linear3" gradientUnits="userSpaceOnUse" x1="365.8167" y1="-51.1082" x2="365.8167" y2="528.3507" gradientTransform="matrix(0.0533333,0,0,0.0533333,0,0)">
<stop offset="0" style="stop-color:rgb(100%,80.784314%,47.058824%);stop-opacity:1;"/>
<stop offset="0.154" style="stop-color:rgb(100%,80%,45.882353%);stop-opacity:1;"/>
<stop offset="0.2861" style="stop-color:rgb(100%,78.039216%,41.568627%);stop-opacity:1;"/>
<stop offset="0.4098" style="stop-color:rgb(100%,74.901961%,34.509804%);stop-opacity:1;"/>
<stop offset="0.4972" style="stop-color:rgb(100%,71.372549%,27.843137%);stop-opacity:1;"/>
<stop offset="0.7914" style="stop-color:rgb(100%,70.588235%,27.843137%);stop-opacity:1;"/>
<stop offset="0.8972" style="stop-color:rgb(100%,67.843137%,28.235294%);stop-opacity:1;"/>
<stop offset="0.9725" style="stop-color:rgb(100%,63.529412%,28.627451%);stop-opacity:1;"/>
<stop offset="1" style="stop-color:rgb(100%,60.784314%,28.627451%);stop-opacity:1;"/>
</linearGradient>
<linearGradient id="linear4" gradientUnits="userSpaceOnUse" x1="598.4127" y1="-51.1082" x2="598.4127" y2="528.3507" gradientTransform="matrix(0.0533333,0,0,0.0533333,0,0)">
<stop offset="0" style="stop-color:rgb(100%,80.784314%,47.058824%);stop-opacity:1;"/>
<stop offset="0.154" style="stop-color:rgb(100%,80%,45.882353%);stop-opacity:1;"/>
<stop offset="0.2861" style="stop-color:rgb(100%,78.039216%,41.568627%);stop-opacity:1;"/>
<stop offset="0.4098" style="stop-color:rgb(100%,74.901961%,34.509804%);stop-opacity:1;"/>
<stop offset="0.4972" style="stop-color:rgb(100%,71.372549%,27.843137%);stop-opacity:1;"/>
<stop offset="0.7914" style="stop-color:rgb(100%,70.588235%,27.843137%);stop-opacity:1;"/>
<stop offset="0.8972" style="stop-color:rgb(100%,67.843137%,28.235294%);stop-opacity:1;"/>
<stop offset="0.9725" style="stop-color:rgb(100%,63.529412%,28.627451%);stop-opacity:1;"/>
<stop offset="1" style="stop-color:rgb(100%,60.784314%,28.627451%);stop-opacity:1;"/>
</linearGradient>
<linearGradient id="linear5" gradientUnits="userSpaceOnUse" x1="598.4464" y1="-51.1082" x2="598.4464" y2="528.3507" gradientTransform="matrix(0.0533333,0,0,0.0533333,0,0)">
<stop offset="0" style="stop-color:rgb(100%,80.784314%,47.058824%);stop-opacity:1;"/>
<stop offset="0.154" style="stop-color:rgb(100%,80%,45.882353%);stop-opacity:1;"/>
<stop offset="0.2861" style="stop-color:rgb(100%,78.039216%,41.568627%);stop-opacity:1;"/>
<stop offset="0.4098" style="stop-color:rgb(100%,74.901961%,34.509804%);stop-opacity:1;"/>
<stop offset="0.4972" style="stop-color:rgb(100%,71.372549%,27.843137%);stop-opacity:1;"/>
<stop offset="0.7914" style="stop-color:rgb(100%,70.588235%,27.843137%);stop-opacity:1;"/>
<stop offset="0.8972" style="stop-color:rgb(100%,67.843137%,28.235294%);stop-opacity:1;"/>
<stop offset="0.9725" style="stop-color:rgb(100%,63.529412%,28.627451%);stop-opacity:1;"/>
<stop offset="1" style="stop-color:rgb(100%,60.784314%,28.627451%);stop-opacity:1;"/>
</linearGradient>
<linearGradient id="linear6" gradientUnits="userSpaceOnUse" x1="773.0807" y1="-51.1082" x2="773.0807" y2="528.3507" gradientTransform="matrix(0.0533333,0,0,0.0533333,0,0)">
<stop offset="0" style="stop-color:rgb(100%,80.784314%,47.058824%);stop-opacity:1;"/>
<stop offset="0.154" style="stop-color:rgb(100%,80%,45.882353%);stop-opacity:1;"/>
<stop offset="0.2861" style="stop-color:rgb(100%,78.039216%,41.568627%);stop-opacity:1;"/>
<stop offset="0.4098" style="stop-color:rgb(100%,74.901961%,34.509804%);stop-opacity:1;"/>
<stop offset="0.4972" style="stop-color:rgb(100%,71.372549%,27.843137%);stop-opacity:1;"/>
<stop offset="0.7914" style="stop-color:rgb(100%,70.588235%,27.843137%);stop-opacity:1;"/>
<stop offset="0.8972" style="stop-color:rgb(100%,67.843137%,28.235294%);stop-opacity:1;"/>
<stop offset="0.9725" style="stop-color:rgb(100%,63.529412%,28.627451%);stop-opacity:1;"/>
<stop offset="1" style="stop-color:rgb(100%,60.784314%,28.627451%);stop-opacity:1;"/>
</linearGradient>
<linearGradient id="linear7" gradientUnits="userSpaceOnUse" x1="795.4996" y1="-51.1082" x2="795.4996" y2="528.3507" gradientTransform="matrix(0.0533333,0,0,0.0533333,0,0)">
<stop offset="0" style="stop-color:rgb(100%,80.784314%,47.058824%);stop-opacity:1;"/>
<stop offset="0.154" style="stop-color:rgb(100%,80%,45.882353%);stop-opacity:1;"/>
<stop offset="0.2861" style="stop-color:rgb(100%,78.039216%,41.568627%);stop-opacity:1;"/>
<stop offset="0.4098" style="stop-color:rgb(100%,74.901961%,34.509804%);stop-opacity:1;"/>
<stop offset="0.4972" style="stop-color:rgb(100%,71.372549%,27.843137%);stop-opacity:1;"/>
<stop offset="0.7914" style="stop-color:rgb(100%,70.588235%,27.843137%);stop-opacity:1;"/>
<stop offset="0.8972" style="stop-color:rgb(100%,67.843137%,28.235294%);stop-opacity:1;"/>
<stop offset="0.9725" style="stop-color:rgb(100%,63.529412%,28.627451%);stop-opacity:1;"/>
<stop offset="1" style="stop-color:rgb(100%,60.784314%,28.627451%);stop-opacity:1;"/>
</linearGradient>
<linearGradient id="linear8" gradientUnits="userSpaceOnUse" x1="598.4285" y1="-51.1082" x2="598.4285" y2="528.3507" gradientTransform="matrix(0.0533333,0,0,0.0533333,0,0)">
<stop offset="0" style="stop-color:rgb(100%,80.784314%,47.058824%);stop-opacity:1;"/>
<stop offset="0.154" style="stop-color:rgb(100%,80%,45.882353%);stop-opacity:1;"/>
<stop offset="0.2861" style="stop-color:rgb(100%,78.039216%,41.568627%);stop-opacity:1;"/>
<stop offset="0.4098" style="stop-color:rgb(100%,74.901961%,34.509804%);stop-opacity:1;"/>
<stop offset="0.4972" style="stop-color:rgb(100%,71.372549%,27.843137%);stop-opacity:1;"/>
<stop offset="0.7914" style="stop-color:rgb(100%,70.588235%,27.843137%);stop-opacity:1;"/>
<stop offset="0.8972" style="stop-color:rgb(100%,67.843137%,28.235294%);stop-opacity:1;"/>
<stop offset="0.9725" style="stop-color:rgb(100%,63.529412%,28.627451%);stop-opacity:1;"/>
<stop offset="1" style="stop-color:rgb(100%,60.784314%,28.627451%);stop-opacity:1;"/>
</linearGradient>
<linearGradient id="linear9" gradientUnits="userSpaceOnUse" x1="416.8624" y1="-51.1082" x2="416.8624" y2="528.3507" gradientTransform="matrix(0.0533333,0,0,0.0533333,0,0)">
<stop offset="0" style="stop-color:rgb(100%,80.784314%,47.058824%);stop-opacity:1;"/>
<stop offset="0.154" style="stop-color:rgb(100%,80%,45.882353%);stop-opacity:1;"/>
<stop offset="0.2861" style="stop-color:rgb(100%,78.039216%,41.568627%);stop-opacity:1;"/>
<stop offset="0.4098" style="stop-color:rgb(100%,74.901961%,34.509804%);stop-opacity:1;"/>
<stop offset="0.4972" style="stop-color:rgb(100%,71.372549%,27.843137%);stop-opacity:1;"/>
<stop offset="0.7914" style="stop-color:rgb(100%,70.588235%,27.843137%);stop-opacity:1;"/>
<stop offset="0.8972" style="stop-color:rgb(100%,67.843137%,28.235294%);stop-opacity:1;"/>
<stop offset="0.9725" style="stop-color:rgb(100%,63.529412%,28.627451%);stop-opacity:1;"/>
<stop offset="1" style="stop-color:rgb(100%,60.784314%,28.627451%);stop-opacity:1;"/>
</linearGradient>
<linearGradient id="linear10" gradientUnits="userSpaceOnUse" x1="599.8591" y1="-51.1082" x2="599.8591" y2="528.3507" gradientTransform="matrix(0.0533333,0,0,0.0533333,0,0)">
<stop offset="0" style="stop-color:rgb(100%,80.784314%,47.058824%);stop-opacity:1;"/>
<stop offset="0.154" style="stop-color:rgb(100%,80%,45.882353%);stop-opacity:1;"/>
<stop offset="0.2861" style="stop-color:rgb(100%,78.039216%,41.568627%);stop-opacity:1;"/>
<stop offset="0.4098" style="stop-color:rgb(100%,74.901961%,34.509804%);stop-opacity:1;"/>
<stop offset="0.4972" style="stop-color:rgb(100%,71.372549%,27.843137%);stop-opacity:1;"/>
<stop offset="0.7914" style="stop-color:rgb(100%,70.588235%,27.843137%);stop-opacity:1;"/>
<stop offset="0.8972" style="stop-color:rgb(100%,67.843137%,28.235294%);stop-opacity:1;"/>
<stop offset="0.9725" style="stop-color:rgb(100%,63.529412%,28.627451%);stop-opacity:1;"/>
<stop offset="1" style="stop-color:rgb(100%,60.784314%,28.627451%);stop-opacity:1;"/>
</linearGradient>
<linearGradient id="linear11" gradientUnits="userSpaceOnUse" x1="785.2991" y1="-51.1082" x2="785.2991" y2="528.3507" gradientTransform="matrix(0.0533333,0,0,0.0533333,0,0)">
<stop offset="0" style="stop-color:rgb(100%,80.784314%,47.058824%);stop-opacity:1;"/>
<stop offset="0.154" style="stop-color:rgb(100%,80%,45.882353%);stop-opacity:1;"/>
<stop offset="0.2861" style="stop-color:rgb(100%,78.039216%,41.568627%);stop-opacity:1;"/>
<stop offset="0.4098" style="stop-color:rgb(100%,74.901961%,34.509804%);stop-opacity:1;"/>
<stop offset="0.4972" style="stop-color:rgb(100%,71.372549%,27.843137%);stop-opacity:1;"/>
<stop offset="0.7914" style="stop-color:rgb(100%,70.588235%,27.843137%);stop-opacity:1;"/>
<stop offset="0.8972" style="stop-color:rgb(100%,67.843137%,28.235294%);stop-opacity:1;"/>
<stop offset="0.9725" style="stop-color:rgb(100%,63.529412%,28.627451%);stop-opacity:1;"/>
<stop offset="1" style="stop-color:rgb(100%,60.784314%,28.627451%);stop-opacity:1;"/>
</linearGradient>
</defs>
<g id="surface1">
<path style=" stroke:none;fill-rule:nonzero;fill:rgb(0%,2.352941%,4.705882%);fill-opacity:1;" d="M 62.71875 32 C 62.71875 48.964844 48.964844 62.71875 32 62.71875 C 15.035156 62.71875 1.28125 48.964844 1.28125 32 C 1.28125 15.035156 15.035156 1.28125 32 1.28125 C 48.964844 1.28125 62.71875 15.035156 62.71875 32 Z M 62.71875 32 "/>
<path style=" stroke:none;fill-rule:nonzero;fill:url(#linear0);" d="M 45.109375 18.296875 C 44.902344 18.769531 44.421875 19.601562 44.011719 20.015625 C 43.5 20.800781 43.164062 22.105469 43.507812 23.09375 C 44.71875 22.339844 45.355469 20.988281 45.265625 19.371094 C 45.246094 19.007812 45.195312 18.667969 45.109375 18.296875 Z M 45.109375 18.296875 "/>
<path style=" stroke:none;fill-rule:nonzero;fill:url(#linear1);" d="M 19.824219 29.425781 C 20.382812 28.117188 21.15625 26.902344 22.101562 25.839844 C 23.316406 24.390625 25.96875 24.28125 26.730469 26.25 C 26.730469 26.246094 26.730469 26.246094 26.734375 26.234375 C 26.230469 24.742188 24.464844 23.566406 23.03125 24.21875 C 21.15625 25.003906 19.441406 27.464844 18.46875 29.210938 C 18.609375 29.222656 18.753906 29.238281 18.890625 29.257812 C 19.207031 29.296875 19.507812 29.355469 19.824219 29.425781 Z M 19.824219 29.425781 "/>
<path style=" stroke:none;fill-rule:nonzero;fill:url(#linear2);" d="M 17.355469 42.757812 C 19.089844 46.414062 23.53125 43.429688 26.355469 41.433594 C 22.964844 37.636719 19.183594 34.273438 16.769531 33.925781 C 16.1875 36.789062 16.410156 40.042969 17.355469 42.757812 Z M 23.929688 41.265625 C 23.265625 41.683594 22.070312 42.320312 20.65625 42.566406 C 19.28125 40.628906 18.410156 38.316406 18.230469 35.808594 C 20.597656 37.417969 22.71875 39.785156 23.929688 41.265625 Z M 23.929688 41.265625 "/>
<path style=" stroke:none;fill-rule:nonzero;fill:url(#linear3);" d="M 20.320312 23.09375 C 20.660156 22.105469 20.332031 20.800781 19.820312 20.015625 C 19.414062 19.601562 18.929688 18.761719 18.71875 18.296875 C 18.394531 19.472656 18.570312 21.113281 19.171875 21.945312 C 19.382812 22.335938 20.003906 22.949219 20.320312 23.09375 Z M 20.320312 23.09375 "/>
<path style=" stroke:none;fill-rule:nonzero;fill:rgb(100%,100%,100%);fill-opacity:1;" d="M 27.703125 17.957031 C 28.058594 17.742188 28.257812 17.398438 28.144531 17.035156 C 27.441406 16.792969 25.796875 16.398438 24.976562 16.375 C 24.761719 16.539062 25.492188 17.226562 25.5 17.464844 C 25.5 17.59375 26.960938 17.9375 27.703125 17.957031 Z M 27.703125 17.957031 "/>
<path style=" stroke:none;fill-rule:nonzero;fill:url(#linear4);" d="M 20.609375 18.339844 C 21.894531 19.414062 22.277344 22.015625 22.144531 22.800781 C 22.890625 22.574219 25.148438 22.65625 26.347656 23.113281 C 26.949219 23.289062 27.609375 23.703125 28.246094 23.675781 C 29.824219 23.726562 31.046875 21.601562 31.355469 20.660156 L 31.914062 20.65625 L 32.480469 20.660156 C 32.792969 21.601562 34.019531 23.726562 35.589844 23.675781 C 36.222656 23.707031 36.886719 23.289062 37.488281 23.113281 C 38.691406 22.652344 40.953125 22.582031 41.691406 22.800781 C 41.484375 18.101562 44.910156 18.480469 44.878906 14.234375 C 42.632812 13.632812 40.019531 13.195312 37.660156 13.386719 C 38.945312 12.800781 40.652344 12.714844 42.085938 12.714844 C 41.53125 8.203125 35.925781 5.097656 31.9375 3.605469 C 31.929688 3.605469 31.921875 3.609375 31.914062 3.609375 C 31.910156 3.609375 31.902344 3.605469 31.898438 3.605469 C 27.921875 5.09375 22.304688 8.203125 21.75 12.71875 C 23.183594 12.71875 24.894531 12.804688 26.175781 13.390625 C 23.8125 13.199219 21.195312 13.636719 18.953125 14.238281 C 18.949219 14.238281 18.828125 16.628906 20.609375 18.339844 Z M 43.253906 15.226562 C 43.050781 16.644531 40 19.078125 40.15625 20.976562 C 40.15625 20.976562 39.449219 19.667969 39.550781 18.476562 C 39.550781 18.476562 37.636719 18.964844 35.753906 18.976562 C 35.753906 18.976562 34.347656 19.710938 35.375 21.125 L 34.773438 21.507812 C 34.773438 21.507812 32.394531 20.019531 33.492188 17.550781 C 33.492188 17.550781 32.804688 17.398438 32.511719 17.152344 C 35.398438 16.308594 38.59375 13.355469 43.253906 15.226562 Z M 24.9375 12.179688 C 24.9375 12.179688 25.050781 11.046875 25.722656 9.898438 C 25.722656 9.898438 27.5625 12.566406 31.914062 9.851562 C 36.273438 12.570312 38.113281 9.898438 38.113281 9.898438 C 38.785156 11.039062 38.894531 12.179688 38.894531 12.179688 C 36.753906 11.867188 33.445312 15.039062 31.914062 14.902344 C 31.871094 14.902344 30.699219 14.921875 28.507812 13.367188 C 26.703125 12.085938 24.9375 12.179688 24.9375 12.179688 Z M 27.574219 15.519531 C 28.773438 16.316406 31.324219 17.15625 31.324219 17.15625 C 31.03125 17.398438 30.339844 17.558594 30.339844 17.558594 C 31.441406 20.027344 29.0625 21.515625 29.0625 21.515625 L 28.457031 21.128906 C 29.488281 19.71875 28.078125 18.980469 28.078125 18.980469 C 26.199219 18.96875 24.28125 18.480469 24.28125 18.480469 C 24.382812 19.675781 23.679688 20.980469 23.679688 20.980469 C 23.828125 19.066406 20.789062 16.65625 20.582031 15.230469 C 23.398438 14.175781 26.367188 14.71875 27.574219 15.519531 Z M 27.574219 15.519531 "/>
<path style=" stroke:none;fill-rule:nonzero;fill:url(#linear5);" d="M 31.925781 1.988281 C -6.074219 2.910156 -6.0625 59.257812 31.914062 60.097656 C 31.914062 60.097656 31.914062 60.097656 31.921875 60.097656 C 69.898438 59.246094 69.894531 2.9375 31.925781 1.988281 Z M 57.441406 36.28125 L 50.214844 28.921875 C 49.972656 29.15625 49.492188 29.632812 49.253906 29.867188 C 49.199219 26.921875 48.382812 23.996094 46.902344 21.449219 C 46.945312 22.96875 46.148438 24.773438 45.253906 25.605469 C 46.320312 26.746094 47.238281 28.027344 47.984375 29.398438 C 49.652344 29.855469 51.574219 31.179688 51.5 33.050781 L 56.816406 38.46875 C 55.664062 41.957031 53.769531 45.183594 51.3125 47.894531 C 50.84375 52.414062 46.496094 55.605469 41.675781 54.875 C 39.359375 55.214844 36.945312 56.820312 31.910156 56.851562 C 26.871094 56.820312 24.464844 55.214844 22.148438 54.875 C 17.328125 55.609375 12.980469 52.421875 12.511719 47.898438 C 10.054688 45.183594 8.160156 41.957031 7.007812 38.476562 L 12.324219 33.054688 C 12.257812 31.183594 14.171875 29.863281 15.839844 29.402344 C 16.585938 28.03125 17.507812 26.753906 18.570312 25.609375 C 17.675781 24.773438 16.878906 22.976562 16.921875 21.457031 C 15.441406 24 14.617188 26.929688 14.570312 29.871094 C 14.332031 29.636719 13.851562 29.164062 13.609375 28.929688 L 6.382812 36.289062 C 6.136719 35.242188 5.953125 34.1875 5.835938 33.113281 C 6.265625 32.671875 8 30.90625 8.46875 30.433594 L 8.457031 30.421875 L 10.230469 28.617188 C 9.898438 28.292969 9.230469 27.644531 8.902344 27.316406 C 8.902344 27.316406 5.519531 30.761719 5.519531 30.761719 C 5.621094 22.246094 9.609375 13.695312 16.628906 8.832031 L 16.609375 8.832031 C 18.433594 7.507812 20.433594 6.4375 22.535156 5.617188 C 23.863281 5.109375 25.210938 4.699219 26.613281 4.40625 C 28.058594 3.738281 29.851562 3.097656 31.886719 2.511719 C 31.894531 2.511719 31.898438 2.515625 31.902344 2.515625 C 31.910156 2.515625 31.921875 2.511719 31.925781 2.511719 C 33.957031 3.097656 35.753906 3.738281 37.199219 4.40625 C 38.601562 4.703125 39.953125 5.109375 41.28125 5.617188 C 43.382812 6.433594 45.382812 7.507812 47.207031 8.832031 L 47.183594 8.832031 C 54.203125 13.695312 58.191406 22.238281 58.292969 30.761719 C 58.292969 30.761719 54.910156 27.316406 54.910156 27.316406 C 54.582031 27.644531 53.914062 28.292969 53.585938 28.617188 L 55.355469 30.421875 L 55.34375 30.433594 C 55.820312 30.917969 57.53125 32.660156 57.980469 33.113281 C 57.867188 34.1875 57.683594 35.238281 57.441406 36.28125 Z M 57.441406 36.28125 "/>
<path style=" stroke:none;fill-rule:nonzero;fill:url(#linear6);" d="M 40.789062 24.207031 C 39.359375 23.574219 37.601562 24.746094 37.097656 26.234375 C 37.097656 26.238281 37.105469 26.246094 37.105469 26.25 C 37.871094 24.28125 40.523438 24.390625 41.734375 25.839844 C 42.675781 26.90625 43.445312 28.117188 44.011719 29.425781 C 44.464844 29.324219 44.910156 29.253906 45.371094 29.210938 C 44.929688 28.390625 44.421875 27.617188 43.851562 26.890625 C 42.992188 25.839844 42.070312 24.730469 40.789062 24.207031 Z M 40.789062 24.207031 "/>
<path style=" stroke:none;fill-rule:nonzero;fill:url(#linear7);" d="M 46.476562 42.757812 C 47.425781 40.042969 47.644531 36.789062 47.054688 33.929688 C 44.640625 34.273438 40.863281 37.636719 37.464844 41.441406 C 40.296875 43.425781 44.746094 46.410156 46.476562 42.757812 Z M 43.179688 42.566406 C 41.765625 42.320312 40.570312 41.683594 39.902344 41.265625 C 41.113281 39.78125 43.238281 37.414062 45.605469 35.800781 C 45.425781 38.316406 44.550781 40.632812 43.179688 42.566406 Z M 43.179688 42.566406 "/>
<path style=" stroke:none;fill-rule:nonzero;fill:url(#linear8);" d="M 31.914062 48.515625 C 30.40625 50.273438 29.136719 51.78125 27.429688 52.894531 C 28.425781 53.375 30.484375 53.675781 31.914062 53.644531 C 33.34375 53.667969 35.402344 53.375 36.398438 52.894531 C 34.691406 51.78125 33.429688 50.273438 31.914062 48.515625 Z M 31.914062 48.515625 "/>
<path style=" stroke:none;fill-rule:nonzero;fill:rgb(100%,38.039216%,0%);fill-opacity:1;" d="M 40.929688 30.394531 C 40.953125 30.378906 40.988281 30.367188 41.011719 30.351562 C 37.300781 31.503906 31.925781 35.070312 31.914062 35.0625 C 31.765625 34.980469 26.480469 31.492188 22.816406 30.355469 C 26.273438 32 31.667969 36.355469 31.914062 36.566406 L 31.914062 36.570312 C 32.113281 36.394531 37.441406 32.078125 40.929688 30.394531 Z M 40.929688 30.394531 "/>
<path style=" stroke:none;fill-rule:nonzero;fill:url(#linear9);" d="M 22.703125 34.089844 C 25.097656 35.753906 26.554688 37.136719 28.742188 39.445312 L 30.457031 38.011719 C 27.445312 34.960938 20.550781 29.78125 16.464844 30.660156 C 15.230469 30.851562 14.042969 31.800781 14.011719 32.640625 C 14.859375 31.734375 16.863281 30.277344 22.703125 34.089844 Z M 22.703125 34.089844 "/>
<path style=" stroke:none;fill-rule:nonzero;fill:url(#linear10);" d="M 31.835938 39.375 C 31.835938 39.375 31.828125 39.375 31.835938 39.375 L 30.207031 40.992188 C 30.214844 40.996094 30.214844 40.996094 30.21875 41.003906 C 30.144531 41.066406 30.070312 41.128906 30 41.199219 L 29.996094 41.199219 C 24.996094 46.332031 14.800781 51.59375 15.214844 42.234375 C 13.300781 45.300781 13.734375 51.472656 18.683594 51.78125 C 26.574219 52.375 32.117188 42.191406 37.046875 37.441406 C 40.742188 33.542969 47.867188 29.722656 49.824219 32.640625 C 48.71875 29.167969 43.375 30.777344 40.878906 32.351562 C 37.601562 34.234375 34.730469 36.46875 31.835938 39.375 Z M 31.835938 39.375 "/>
<path style=" stroke:none;fill-rule:nonzero;fill:url(#linear11);" d="M 48.617188 42.234375 C 49.242188 50.1875 40.960938 47.621094 36.128906 43.148438 L 34.0625 45.777344 C 37.507812 49.566406 42.792969 53.601562 47.464844 50.996094 C 49.636719 49.710938 50.019531 46.8125 49.484375 44.570312 C 49.167969 43.167969 48.617188 42.234375 48.617188 42.234375 Z M 48.617188 42.234375 "/>
<path style=" stroke:none;fill-rule:nonzero;fill:rgb(100%,100%,100%);fill-opacity:1;" d="M 36.128906 17.957031 C 36.875 17.929688 38.335938 17.589844 38.335938 17.464844 C 38.335938 17.226562 39.066406 16.539062 38.859375 16.375 C 38.03125 16.398438 36.394531 16.792969 35.691406 17.035156 C 35.667969 17.097656 35.660156 17.164062 35.660156 17.230469 C 35.652344 17.519531 35.835938 17.785156 36.128906 17.957031 Z M 36.128906 17.957031 "/>
</g>
</svg>
