<?xml version="1.0" encoding="UTF-8"?>
<svg xmlns="http://www.w3.org/2000/svg" xmlns:xlink="http://www.w3.org/1999/xlink" width="64pt" height="64pt" viewBox="0 0 64 64" version="1.1">
<g id="surface1">
<path style=" stroke:none;fill-rule:nonzero;fill:rgb(89.411765%,23.921569%,18.823529%);fill-opacity:1;" d="M 27.199219 31.039062 L 18.238281 31.039062 L 15.839844 28.160156 L 15.039062 27.199219 L 11.199219 22.71875 L 27.199219 22.71875 L 27.199219 19.519531 L 8.480469 19.519531 L 2.078125 12 L 61.921875 12 L 54.558594 19.519531 L 36.800781 19.519531 L 36.800781 31.359375 L 57.28125 31.359375 L 48.640625 40.160156 L 40.480469 40.160156 L 27.199219 51.679688 Z M 27.199219 31.039062 "/>
<path style=" stroke:none;fill-rule:nonzero;fill:rgb(0%,0%,0%);fill-opacity:1;" d="M 26.398438 53.441406 L 26.398438 31.839844 L 17.921875 31.839844 L 15.199219 28.640625 L 14.398438 27.839844 L 9.441406 21.921875 L 26.398438 21.921875 L 26.398438 20.160156 L 8.160156 20.160156 L 0.320312 11.199219 L 64 11.199219 L 55.039062 20.160156 L 37.601562 20.160156 L 37.601562 30.398438 L 59.199219 30.398438 L 48.960938 40.800781 L 40.640625 40.800781 Z M 18.71875 30.238281 L 28.160156 30.238281 L 28.160156 49.761719 L 40.160156 39.359375 L 48.480469 39.359375 L 55.519531 32.160156 L 36 32.160156 L 36 18.71875 L 54.238281 18.71875 L 60 12.800781 L 3.839844 12.800781 L 8.800781 18.558594 L 28 18.558594 L 28 23.519531 L 12.960938 23.519531 L 15.679688 26.71875 L 16.480469 27.519531 Z M 18.71875 30.238281 "/>
</g>
</svg>
