<?xml version="1.0" encoding="UTF-8"?>
<svg xmlns="http://www.w3.org/2000/svg" xmlns:xlink="http://www.w3.org/1999/xlink" width="64pt" height="64pt" viewBox="0 0 64 64" version="1.1">
<g id="surface1">
<path style=" stroke:none;fill-rule:nonzero;fill:rgb(100%,34.901961%,0%);fill-opacity:1;" d="M 30.433594 13.449219 C 27.59375 13.449219 24.9375 13.625 22.273438 13.800781 C 15.175781 14.335938 8.257812 15.574219 1.34375 17.34375 L 7.375 24.265625 C 11.992188 23.199219 16.601562 22.488281 21.214844 22.136719 C 19.089844 30.648438 14.296875 38.105469 7.375 43.246094 L 7.375 53.007812 C 19.078125 46.449219 27.238281 34.910156 29.726562 21.609375 C 30.257812 18.953125 30.433594 16.113281 30.433594 13.449219 Z M 30.433594 13.449219 "/>
<path style=" stroke:none;fill-rule:nonzero;fill:rgb(100%,34.901961%,0%);fill-opacity:1;" d="M 62.71875 17.351562 C 55.800781 15.574219 48.878906 14.335938 41.792969 13.808594 C 39.128906 13.632812 36.296875 13.457031 33.632812 13.457031 C 33.632812 16.296875 33.808594 18.953125 34.34375 21.617188 C 36.824219 34.921875 44.984375 46.273438 56.695312 53.015625 L 56.695312 43.257812 C 49.777344 38.113281 44.992188 30.664062 42.855469 22.144531 C 47.472656 22.496094 52.078125 23.382812 56.695312 24.273438 Z M 62.71875 17.351562 "/>
<path style=" stroke:none;fill-rule:nonzero;fill:rgb(100%,34.901961%,0%);fill-opacity:1;" d="M 28.304688 53.183594 L 35.761719 44.671875 L 35.761719 35.625 L 28.304688 35.625 Z M 28.304688 53.183594 "/>
</g>
</svg>
