<?xml version="1.0" encoding="UTF-8"?>
<svg xmlns="http://www.w3.org/2000/svg" xmlns:xlink="http://www.w3.org/1999/xlink" width="64pt" height="64pt" viewBox="0 0 64 64" version="1.1">
<g id="surface1">
<path style=" stroke:none;fill-rule:evenodd;fill:rgb(100%,100%,100%);fill-opacity:1;" d="M 13.882812 10.554688 C 13.148438 9.707031 12.640625 8.746094 12.246094 7.730469 C 11.683594 6.039062 11.625 4.402344 12.246094 2.710938 C 12.753906 1.296875 14.054688 0.621094 15.519531 1.074219 C 17.945312 1.863281 20.316406 2.539062 22.800781 2.992188 C 26.300781 3.667969 29.742188 3.441406 33.128906 2.371094 C 35.441406 1.691406 37.8125 1.355469 40.183594 1.523438 C 41.761719 1.636719 43.289062 2.089844 44.753906 2.539062 C 46.277344 2.992188 47.746094 3.386719 49.214844 3.78125 C 49.550781 3.894531 49.890625 3.949219 50.230469 3.894531 C 53.617188 3.78125 56.664062 4.855469 59.542969 6.433594 C 60.558594 7 61.574219 7.675781 62.476562 8.410156 C 63.773438 9.480469 64.113281 10.890625 63.660156 12.472656 C 63.660156 12.585938 63.605469 12.699219 63.660156 12.753906 C 64.054688 13.941406 63.886719 15.070312 63.605469 16.253906 C 63.265625 17.777344 62.703125 19.246094 61.6875 20.542969 C 61.574219 20.710938 61.515625 20.9375 61.460938 21.109375 C 60.894531 22.6875 59.992188 24.042969 58.414062 24.777344 C 58.074219 24.945312 57.734375 25 57.339844 25.171875 C 58.414062 26.527344 59.035156 28.050781 59.429688 29.742188 C 59.484375 29.910156 59.542969 30.023438 59.597656 30.136719 C 62.25 34.652344 59.597656 40.464844 54.40625 41.367188 C 52.203125 41.761719 50.171875 41.253906 48.367188 39.84375 C 46.449219 38.320312 44.191406 37.53125 41.761719 37.757812 C 37.925781 38.039062 34.089844 40.636719 33.46875 45.207031 C 32.960938 49.101562 34.199219 52.316406 37.363281 54.632812 C 38.660156 55.589844 40.128906 56.042969 41.761719 56.15625 C 42.890625 56.210938 44.019531 56.15625 45.207031 55.761719 C 45.09375 56.210938 45.035156 56.550781 44.925781 56.890625 C 44.191406 58.921875 42.722656 60.386719 40.804688 61.347656 C 38.941406 62.308594 36.910156 62.703125 34.820312 62.816406 C 32.054688 62.984375 29.289062 62.644531 26.582031 62.023438 C 26.46875 62.023438 26.300781 62.023438 26.242188 62.136719 C 25.621094 62.984375 24.777344 63.210938 23.816406 63.097656 C 21.21875 62.757812 18.679688 62.082031 16.308594 60.894531 C 13.261719 59.371094 10.890625 57.113281 9.144531 54.179688 C 8.972656 53.953125 8.859375 53.785156 8.523438 53.839844 C 7.902344 53.953125 7.28125 53.671875 6.828125 53.21875 C 5.078125 51.640625 3.835938 49.664062 2.933594 47.519531 C 1.582031 44.304688 1.128906 40.917969 1.296875 37.417969 C 1.296875 37.304688 1.355469 37.136719 1.355469 37.023438 C 1.410156 36.515625 1.46875 36.007812 0.960938 35.554688 C 0.394531 34.992188 0.28125 34.144531 0.226562 33.410156 C -0.167969 29.96875 0.5625 26.636719 1.863281 23.476562 C 4.234375 17.835938 8.128906 13.65625 13.601562 10.890625 C 13.714844 10.835938 13.828125 10.78125 13.882812 10.722656 C 13.828125 10.667969 13.882812 10.609375 13.882812 10.554688 Z M 61.6875 11.683594 C 61.800781 10.890625 61.628906 10.496094 61.066406 9.988281 C 60.050781 9.085938 58.863281 8.410156 57.621094 7.84375 C 55.308594 6.714844 52.882812 5.980469 50.285156 6.039062 C 49.835938 6.039062 49.328125 5.980469 48.875 5.925781 C 47.070312 5.644531 45.433594 5.023438 43.683594 4.457031 C 42.382812 4.007812 41.085938 3.667969 39.675781 3.613281 C 37.757812 3.554688 35.835938 3.835938 34.03125 4.402344 C 32.226562 4.964844 30.363281 5.363281 28.5 5.53125 C 26.128906 5.699219 23.761719 5.472656 21.445312 4.910156 C 19.300781 4.402344 17.15625 3.78125 15.011719 3.160156 C 14.503906 3.046875 14.390625 3.046875 14.222656 3.554688 C 14.109375 4.0625 13.996094 4.570312 13.996094 5.078125 C 13.996094 8.804688 17.328125 11.683594 20.996094 11.175781 C 21.21875 11.117188 21.445312 11.117188 21.726562 11.0625 C 21.671875 11.175781 21.671875 11.175781 21.617188 11.230469 C 21.503906 11.289062 21.445312 11.398438 21.332031 11.398438 C 20.089844 12.019531 18.851562 12.132812 17.550781 11.796875 C 17.15625 11.683594 16.761719 11.683594 16.308594 11.851562 C 10.214844 14.390625 5.925781 18.625 3.5 24.832031 C 2.597656 27.203125 2.089844 29.628906 2.144531 32.167969 C 2.144531 32.847656 2.3125 33.46875 2.425781 34.199219 C 2.933594 33.074219 3.328125 32.054688 3.78125 31.097656 C 4.289062 30.136719 5.304688 28.839844 5.8125 28.5 C 5.644531 28.839844 5.472656 29.179688 5.363281 29.460938 C 3.386719 34.03125 2.765625 38.773438 3.894531 43.683594 C 4.570312 46.449219 5.699219 48.988281 7.675781 51.074219 C 7.902344 51.300781 8.128906 51.472656 8.351562 51.695312 C 7.789062 49.550781 7.675781 47.464844 8.183594 45.320312 C 8.691406 47.972656 9.480469 50.566406 10.949219 52.9375 C 12.359375 55.308594 14.277344 57.171875 16.707031 58.527344 C 18.851562 59.710938 23.253906 61.066406 24.4375 60.839844 C 22.6875 59.878906 21.445312 58.46875 20.710938 56.605469 C 21.558594 57.398438 22.519531 58.019531 23.589844 58.527344 C 26.75 60.050781 30.082031 60.671875 33.582031 60.613281 C 35.441406 60.613281 37.25 60.386719 38.941406 59.65625 C 39.730469 59.316406 40.464844 58.921875 41.03125 58.242188 C 36.234375 57.398438 33.015625 54.746094 31.605469 50.171875 C 30.195312 45.546875 31.546875 41.539062 35.046875 38.152344 C 31.152344 38.601562 27.765625 37.417969 24.890625 34.878906 C 21.558594 32 20.542969 27.765625 20.824219 25.171875 C 20.882812 25.621094 20.9375 26.074219 20.996094 26.527344 C 21.503906 29.289062 22.632812 31.71875 24.71875 33.636719 C 27.316406 36.007812 30.363281 37.023438 33.804688 37.023438 C 35.21875 37.023438 36.628906 36.855469 37.925781 36.34375 C 42.160156 34.710938 46.054688 35.273438 49.609375 38.09375 C 50.792969 39 52.148438 39.394531 53.617188 39.222656 C 57.566406 38.714844 59.597656 34.3125 57.507812 30.984375 C 57.339844 30.757812 57.285156 30.476562 57.226562 30.195312 C 56.945312 29.007812 56.605469 27.9375 55.929688 26.921875 C 55.871094 26.808594 55.761719 26.695312 55.589844 26.527344 C 55.535156 26.695312 55.476562 26.75 55.476562 26.863281 C 55.308594 27.878906 55.140625 28.894531 54.96875 29.910156 C 54.855469 30.476562 55.027344 30.703125 55.589844 30.816406 C 55.703125 30.816406 55.816406 30.871094 56.042969 30.925781 C 55.082031 31.324219 54.746094 31.097656 54.632812 30.25 C 54.632812 30.25 54.632812 30.195312 54.632812 30.195312 C 54.460938 28.953125 54.125 27.765625 53.164062 26.863281 C 53.050781 26.75 52.882812 26.695312 52.769531 26.636719 C 52.710938 26.75 52.601562 26.921875 52.601562 27.035156 C 52.488281 27.597656 52.488281 28.164062 52.316406 28.671875 C 52.089844 29.515625 51.867188 30.363281 51.640625 31.265625 C 51.1875 31.152344 50.792969 31.039062 50.398438 30.984375 C 48.875 30.644531 47.351562 30.25 45.769531 29.96875 C 44.699219 29.742188 43.570312 29.628906 42.496094 29.347656 C 41.480469 29.066406 40.636719 28.5 40.464844 27.316406 C 40.464844 27.257812 40.464844 27.144531 40.464844 27.089844 C 41.3125 28.839844 42.890625 29.234375 44.585938 29.402344 C 44.304688 29.121094 43.964844 28.953125 43.683594 28.671875 C 43.0625 28.21875 42.554688 27.597656 42.496094 26.75 C 42.441406 25.679688 42.554688 24.605469 43.0625 23.589844 C 43.851562 21.898438 45.09375 20.710938 46.617188 19.695312 C 46.730469 19.640625 46.785156 19.527344 46.898438 19.472656 C 46.898438 19.414062 46.84375 19.414062 46.84375 19.359375 C 44.472656 19.640625 42.554688 20.65625 41.144531 22.574219 C 41.253906 22.238281 41.367188 21.953125 41.539062 21.671875 C 42.890625 19.472656 44.925781 18.511719 47.464844 18.398438 C 49.15625 18.285156 50.792969 18.566406 52.429688 18.851562 C 52.824219 18.90625 52.9375 19.074219 52.9375 19.414062 C 52.882812 20.542969 52.882812 21.671875 52.824219 22.746094 C 52.824219 22.855469 52.824219 23.027344 52.9375 23.140625 C 52.996094 23.195312 53.164062 23.140625 53.277344 23.082031 C 54.066406 22.746094 54.746094 22.292969 55.195312 21.558594 C 55.648438 20.882812 56.042969 20.148438 56.492188 19.359375 C 56.890625 19.414062 57.339844 19.414062 57.792969 19.472656 C 57.792969 19.472656 57.792969 19.472656 57.792969 19.527344 C 57.507812 19.582031 57.226562 19.582031 56.945312 19.640625 C 56.945312 20.542969 56.945312 21.503906 56.945312 22.40625 C 56.945312 22.519531 56.945312 22.632812 57 22.800781 C 57.113281 22.800781 57.285156 22.746094 57.398438 22.6875 C 58.300781 22.238281 58.863281 21.445312 59.203125 20.542969 C 59.429688 19.921875 59.65625 19.300781 60.105469 18.738281 C 61.066406 17.4375 61.460938 15.914062 61.628906 14.335938 C 61.742188 13.375 61.347656 12.699219 60.558594 12.132812 C 60.21875 11.910156 59.878906 11.683594 59.597656 11.457031 C 59.144531 11.003906 58.695312 10.554688 58.242188 10.046875 C 58.1875 9.988281 58.1875 9.875 58.1875 9.761719 C 58.300781 9.761719 58.414062 9.761719 58.46875 9.820312 C 58.636719 9.875 58.808594 9.988281 58.921875 10.101562 C 59.878906 10.722656 60.726562 11.175781 61.6875 11.683594 Z M 61.6875 11.683594 "/>
<path style=" stroke:none;fill-rule:evenodd;fill:rgb(0%,0%,0%);fill-opacity:1;" d="M 61.6875 11.683594 C 60.78125 11.175781 59.878906 10.722656 59.035156 10.214844 C 58.863281 10.101562 58.75 9.988281 58.582031 9.933594 C 58.527344 9.875 58.414062 9.933594 58.300781 9.875 C 58.300781 9.988281 58.300781 10.101562 58.355469 10.160156 C 58.808594 10.609375 59.257812 11.117188 59.710938 11.570312 C 59.992188 11.851562 60.332031 12.019531 60.671875 12.246094 C 61.460938 12.753906 61.855469 13.488281 61.742188 14.449219 C 61.574219 16.027344 61.234375 17.550781 60.21875 18.851562 C 59.765625 19.414062 59.542969 20.035156 59.316406 20.65625 C 58.976562 21.558594 58.414062 22.347656 57.507812 22.800781 C 57.398438 22.855469 57.226562 22.855469 57.113281 22.914062 C 57.113281 22.800781 57.058594 22.6875 57.058594 22.519531 C 57.058594 21.617188 57.058594 20.710938 57.058594 19.753906 C 57.339844 19.695312 57.621094 19.695312 57.90625 19.640625 C 57.90625 19.640625 57.90625 19.640625 57.90625 19.582031 C 57.453125 19.527344 57 19.472656 56.605469 19.472656 C 56.15625 20.203125 55.761719 20.996094 55.308594 21.671875 C 54.855469 22.347656 54.179688 22.855469 53.390625 23.195312 C 53.277344 23.253906 53.109375 23.308594 53.050781 23.253906 C 52.996094 23.195312 52.9375 23.027344 52.9375 22.855469 C 52.996094 21.726562 52.996094 20.601562 53.050781 19.527344 C 53.050781 19.1875 52.9375 19.019531 52.542969 18.964844 C 50.90625 18.679688 49.269531 18.453125 47.578125 18.511719 C 45.09375 18.625 43.003906 19.582031 41.652344 21.785156 C 41.480469 22.066406 41.367188 22.347656 41.253906 22.6875 C 42.722656 20.769531 44.640625 19.695312 46.957031 19.472656 C 46.957031 19.527344 47.011719 19.527344 47.011719 19.582031 C 46.898438 19.640625 46.84375 19.753906 46.730469 19.808594 C 45.207031 20.824219 43.964844 22.011719 43.175781 23.703125 C 42.722656 24.71875 42.554688 25.792969 42.609375 26.863281 C 42.667969 27.710938 43.117188 28.273438 43.796875 28.78125 C 44.078125 29.007812 44.417969 29.234375 44.699219 29.515625 C 43.003906 29.289062 41.425781 28.953125 40.578125 27.203125 C 40.578125 27.257812 40.523438 27.371094 40.578125 27.429688 C 40.746094 28.613281 41.539062 29.179688 42.609375 29.460938 C 43.683594 29.742188 44.8125 29.855469 45.882812 30.082031 C 47.40625 30.417969 48.929688 30.757812 50.511719 31.097656 C 50.90625 31.210938 51.246094 31.265625 51.753906 31.378906 C 51.980469 30.476562 52.261719 29.6875 52.429688 28.78125 C 52.542969 28.21875 52.601562 27.65625 52.710938 27.144531 C 52.710938 26.976562 52.824219 26.863281 52.882812 26.75 C 52.996094 26.808594 53.164062 26.863281 53.277344 26.976562 C 54.238281 27.878906 54.574219 29.066406 54.746094 30.308594 C 54.746094 30.308594 54.746094 30.363281 54.746094 30.363281 C 54.800781 31.210938 55.195312 31.4375 56.15625 31.039062 C 55.929688 30.984375 55.816406 30.984375 55.703125 30.925781 C 55.140625 30.816406 55.027344 30.589844 55.082031 30.023438 C 55.253906 29.007812 55.421875 27.992188 55.589844 26.976562 C 55.589844 26.921875 55.648438 26.808594 55.703125 26.636719 C 55.816406 26.808594 55.929688 26.921875 56.042969 27.035156 C 56.71875 28.050781 57.058594 29.179688 57.339844 30.308594 C 57.398438 30.589844 57.507812 30.871094 57.621094 31.097656 C 59.710938 34.425781 57.679688 38.828125 53.726562 39.335938 C 52.203125 39.507812 50.90625 39.167969 49.722656 38.207031 C 46.164062 35.441406 42.273438 34.878906 38.039062 36.457031 C 36.742188 36.964844 35.328125 37.136719 33.917969 37.136719 C 30.476562 37.136719 27.371094 36.121094 24.832031 33.75 C 22.746094 31.832031 21.617188 29.402344 21.109375 26.636719 C 21.050781 26.1875 20.996094 25.734375 20.9375 25.285156 C 20.65625 27.878906 21.671875 32.054688 25 34.992188 C 27.878906 37.472656 31.210938 38.660156 35.160156 38.265625 C 31.71875 41.652344 30.308594 45.601562 31.71875 50.285156 C 33.128906 54.914062 36.34375 57.566406 41.144531 58.355469 C 40.523438 58.976562 39.84375 59.429688 39.054688 59.765625 C 37.304688 60.5 35.5 60.726562 33.691406 60.726562 C 30.195312 60.726562 26.863281 60.105469 23.703125 58.636719 C 22.632812 58.128906 21.671875 57.507812 20.824219 56.71875 C 21.558594 58.527344 22.800781 59.992188 24.550781 60.953125 C 23.421875 61.179688 18.964844 59.878906 16.816406 58.636719 C 14.390625 57.285156 12.527344 55.363281 11.0625 53.050781 C 9.652344 50.679688 8.859375 48.140625 8.296875 45.433594 C 7.789062 47.578125 7.902344 49.664062 8.464844 51.808594 C 8.238281 51.582031 8.015625 51.414062 7.789062 51.1875 C 5.8125 49.101562 4.628906 46.5625 4.007812 43.796875 C 2.878906 38.886719 3.5 34.144531 5.53125 29.515625 C 5.644531 29.179688 5.8125 28.894531 5.980469 28.558594 C 5.472656 28.894531 4.457031 30.195312 3.949219 31.152344 C 3.441406 32.167969 3.046875 33.183594 2.597656 34.257812 C 2.484375 33.523438 2.371094 32.902344 2.3125 32.226562 C 2.199219 29.6875 2.710938 27.257812 3.667969 24.890625 C 6.039062 18.738281 10.382812 14.449219 16.480469 11.910156 C 16.875 11.738281 17.269531 11.738281 17.722656 11.851562 C 19.019531 12.191406 20.316406 12.019531 21.503906 11.457031 C 21.617188 11.398438 21.726562 11.34375 21.785156 11.289062 C 21.785156 11.289062 21.839844 11.230469 21.898438 11.117188 C 21.617188 11.175781 21.390625 11.175781 21.164062 11.230469 C 17.496094 11.796875 14.164062 8.859375 14.164062 5.136719 C 14.164062 4.628906 14.277344 4.121094 14.390625 3.613281 C 14.503906 3.105469 14.671875 3.105469 15.183594 3.21875 C 17.328125 3.835938 19.472656 4.457031 21.617188 4.964844 C 23.929688 5.53125 26.300781 5.757812 28.671875 5.585938 C 30.53125 5.417969 32.394531 5.023438 34.199219 4.457031 C 36.0625 3.894531 37.925781 3.667969 39.84375 3.667969 C 41.199219 3.667969 42.554688 4.0625 43.851562 4.515625 C 45.546875 5.078125 47.238281 5.699219 49.042969 5.980469 C 49.496094 6.039062 50.003906 6.152344 50.453125 6.09375 C 53.050781 6.039062 55.476562 6.773438 57.792969 7.902344 C 59.035156 8.464844 60.164062 9.199219 61.234375 10.046875 C 61.628906 10.496094 61.742188 10.890625 61.6875 11.683594 Z M 38.039062 6.207031 C 38.320312 6.152344 38.433594 6.152344 38.601562 6.152344 C 39.109375 6.152344 39.222656 6.378906 39 6.773438 C 38.773438 7.167969 38.773438 7.617188 38.941406 8.070312 C 38.941406 8.128906 39.109375 8.238281 39.222656 8.238281 C 40.128906 8.183594 40.972656 8.410156 41.820312 8.691406 C 42.101562 8.804688 42.273438 8.746094 42.382812 8.464844 C 42.722656 7.675781 42.722656 7.617188 41.988281 7.109375 C 41.3125 6.660156 40.691406 6.152344 39.902344 5.980469 C 39.28125 5.871094 38.660156 5.871094 38.039062 6.207031 Z M 42.609375 8.972656 C 43.570312 9.144531 44.359375 8.746094 45.148438 8.238281 C 44.585938 8.183594 44.019531 8.070312 43.457031 8.015625 C 43.175781 8.296875 42.890625 8.636719 42.609375 8.972656 Z M 42.609375 8.972656 "/>
<path style=" stroke:none;fill-rule:evenodd;fill:rgb(100%,100%,100%);fill-opacity:1;" d="M 38.039062 6.207031 C 38.660156 5.8125 39.28125 5.871094 39.84375 5.980469 C 40.636719 6.152344 41.3125 6.660156 41.933594 7.109375 C 42.609375 7.617188 42.609375 7.617188 42.328125 8.464844 C 42.214844 8.746094 42.101562 8.804688 41.761719 8.691406 C 40.917969 8.410156 40.070312 8.183594 39.167969 8.238281 C 39.054688 8.238281 38.941406 8.128906 38.886719 8.070312 C 38.773438 7.617188 38.714844 7.222656 38.941406 6.773438 C 39.167969 6.320312 39.054688 6.152344 38.546875 6.152344 C 38.433594 6.152344 38.320312 6.207031 38.039062 6.207031 Z M 38.039062 6.207031 "/>
<path style=" stroke:none;fill-rule:evenodd;fill:rgb(100%,100%,100%);fill-opacity:1;" d="M 42.609375 8.972656 C 42.890625 8.636719 43.175781 8.296875 43.457031 8.015625 C 44.019531 8.070312 44.527344 8.183594 45.148438 8.238281 C 44.359375 8.746094 43.570312 9.144531 42.609375 8.972656 Z M 42.609375 8.972656 "/>
</g>
</svg>
