<?xml version="1.0" encoding="UTF-8"?>
<svg xmlns="http://www.w3.org/2000/svg" xmlns:xlink="http://www.w3.org/1999/xlink" width="64pt" height="64pt" viewBox="0 0 64 64" version="1.1">
<g id="surface1">
<path style=" stroke:none;fill-rule:evenodd;fill:rgb(2.352941%,57.254902%,94.901961%);fill-opacity:1;" d="M 33.863281 23.390625 C 28.832031 16.84375 19.066406 17.03125 19.066406 17.03125 C 23.011719 20.179688 23.632812 22.6875 23.503906 23.917969 C 25.371094 23.386719 28.347656 23.296875 31.285156 23.859375 C 31.285156 23.859375 26.5 24.691406 21.972656 27.097656 C 22.917969 27.238281 25.675781 27.589844 27.585938 28.480469 C 34.390625 26.40625 40.433594 28.410156 40.433594 28.410156 C 33.53125 28.421875 28.105469 30.71875 28.105469 30.71875 C 19.164062 26.835938 8.960938 29.503906 8.960938 29.503906 C 28.355469 34.167969 35.839844 47.105469 35.839844 47.105469 C 36.640625 43.957031 36.617188 41.003906 36.617188 41.003906 C 35.402344 40.710938 32.003906 40.351562 32.003906 40.351562 C 34.496094 38.777344 40.074219 37.703125 42.339844 37.3125 C 44.609375 36.914062 44.574219 35.757812 44.574219 35.757812 C 44.726562 32.242188 35.988281 31.425781 35.988281 31.425781 C 41.820312 30.144531 45.707031 31.96875 46.800781 32.902344 C 48.027344 33.945312 46.976562 35.316406 46.976562 35.316406 C 52.390625 33.625 54.980469 29.511719 54.980469 29.511719 C 45.023438 21.472656 33.863281 23.390625 33.863281 23.390625 Z M 43.738281 27.441406 L 41.53125 25.472656 C 41.53125 25.472656 44.699219 25.714844 47.257812 27.441406 Z M 43.738281 27.441406 "/>
</g>
</svg>
