<?xml version="1.0" encoding="UTF-8"?>
<svg xmlns="http://www.w3.org/2000/svg" xmlns:xlink="http://www.w3.org/1999/xlink" width="64pt" height="64pt" viewBox="0 0 64 64" version="1.1">
<g id="surface1">
<path style=" stroke:none;fill-rule:nonzero;fill:rgb(7.058824%,13.72549%,24.313725%);fill-opacity:1;" d="M 32.121094 63.585938 C 32.121094 63.585938 20.714844 59.328125 14.359375 54.964844 C 4.773438 48.335938 4.398438 39.164062 4.398438 20.816406 L 4.398438 9.929688 L 32.121094 0.378906 L 59.84375 9.929688 L 59.84375 20.816406 C 59.84375 39.164062 59.464844 48.335938 49.847656 54.964844 C 43.527344 59.363281 32.121094 63.585938 32.121094 63.585938 Z M 32.121094 63.585938 "/>
<path style=" stroke:none;fill-rule:nonzero;fill:rgb(100%,100%,100%);fill-opacity:1;" d="M 14.976562 38.269531 C 13.226562 39.128906 10.925781 40.125 8.382812 41.050781 C 8.828125 43.011719 9.445312 44.726562 10.304688 46.308594 C 12.230469 45.105469 13.914062 43.867188 15.21875 42.839844 C 15.011719 41.222656 14.945312 39.710938 14.976562 38.269531 Z M 14.976562 38.269531 "/>
<path style=" stroke:none;fill-rule:nonzero;fill:rgb(100%,100%,100%);fill-opacity:1;" d="M 19.273438 23.980469 C 16.042969 22.671875 11.199219 20.371094 7.144531 17.3125 L 7.144531 21.78125 C 7.144531 22.605469 7.144531 23.429688 7.144531 24.21875 C 10.925781 25.660156 14.804688 26.554688 17.519531 27 C 18.070312 25.9375 18.652344 24.941406 19.273438 23.980469 Z M 19.273438 23.980469 "/>
<path style=" stroke:none;fill-rule:nonzero;fill:rgb(100%,100%,100%);fill-opacity:1;" d="M 23.839844 18.859375 C 21.609375 16.558594 18.480469 12.917969 16.078125 8.898438 L 9.894531 11.027344 C 13.328125 15.355469 18.171875 19.132812 21.367188 21.265625 C 22.15625 20.371094 22.980469 19.582031 23.839844 18.859375 Z M 23.839844 18.859375 "/>
<path style=" stroke:none;fill-rule:nonzero;fill:rgb(100%,100%,100%);fill-opacity:1;" d="M 26.65625 16.730469 C 27.792969 16.007812 28.890625 15.425781 29.886719 14.976562 C 28.960938 12.46875 27.859375 8.863281 27.171875 5.015625 L 21.675781 6.90625 C 23.1875 10.785156 25.148438 14.324219 26.65625 16.730469 Z M 26.65625 16.730469 "/>
<path style=" stroke:none;fill-rule:nonzero;fill:rgb(100%,100%,100%);fill-opacity:1;" d="M 16.214844 30.402344 C 13.84375 30.503906 10.613281 30.472656 7.25 30.058594 C 7.316406 32.050781 7.386719 33.871094 7.558594 35.554688 C 10.546875 35.210938 13.292969 34.664062 15.355469 34.113281 C 15.5625 32.839844 15.835938 31.570312 16.214844 30.402344 Z M 16.214844 30.402344 "/>
<path style=" stroke:none;fill-rule:nonzero;fill:rgb(100%,100%,100%);fill-opacity:1;" d="M 16.113281 47.886719 C 15.425781 48.710938 14.601562 49.640625 13.671875 50.636719 C 14.394531 51.324219 15.21875 51.976562 16.144531 52.628906 C 16.695312 53.007812 17.3125 53.386719 17.933594 53.796875 C 17.175781 51.734375 16.558594 49.777344 16.113281 47.886719 Z M 16.113281 47.886719 "/>
<path style=" stroke:none;fill-rule:nonzero;fill:rgb(100%,100%,100%);fill-opacity:1;" d="M 42.496094 25.179688 C 43.042969 25.628906 44.488281 25.214844 44.488281 25.214844 L 43.457031 23.980469 L 41.222656 22.5 C 41.222656 22.5 41.945312 24.734375 42.496094 25.179688 Z M 42.496094 25.179688 "/>
<path style=" stroke:none;fill-rule:nonzero;fill:rgb(100%,100%,100%);fill-opacity:1;" d="M 49.777344 37.582031 L 48.4375 36.515625 L 49.195312 38.371094 L 51.359375 38.199219 Z M 49.777344 37.582031 "/>
<path style=" stroke:none;fill-rule:nonzero;fill:rgb(100%,100%,100%);fill-opacity:1;" d="M 33.699219 3.882812 C 32.773438 6.835938 32.5 10.445312 33.527344 14.015625 L 33.496094 14.015625 C 33.496094 14.015625 33.527344 14.015625 33.527344 14.015625 C 33.90625 13.636719 36.757812 10.648438 39.300781 7.867188 C 39.300781 7.867188 42.667969 11.714844 37.960938 15.699219 C 37.960938 15.699219 46.34375 21.574219 46.890625 21.8125 C 46.890625 21.8125 46.445312 23.636719 46.859375 25.179688 L 53.453125 37.960938 L 50.121094 41.875 L 45.242188 39.128906 L 47.613281 42.90625 C 47.613281 42.90625 44.933594 43.25 44.144531 42.839844 C 43.695312 40.433594 41.566406 36.585938 41.566406 36.585938 L 36.585938 34.558594 C 36.585938 34.558594 34.421875 31.878906 34.558594 27.996094 C 34.558594 27.996094 32.085938 38.167969 38.75 40.707031 L 48.09375 52.59375 C 56.75 46.617188 57.09375 38.304688 57.09375 21.746094 L 57.09375 11.953125 Z M 33.699219 3.882812 "/>
</g>
</svg>
