<?xml version="1.0" encoding="UTF-8"?>
<svg xmlns="http://www.w3.org/2000/svg" xmlns:xlink="http://www.w3.org/1999/xlink" width="64pt" height="64pt" viewBox="0 0 64 64" version="1.1">
<g id="surface1">
<path style=" stroke:none;fill-rule:nonzero;fill:rgb(69.411765%,9.019608%,22.352941%);fill-opacity:1;" d="M 3.519531 12.800781 L 4.160156 12.800781 C 6.71875 12.800781 11.679688 14.878906 18.558594 19.039062 C 22.078125 21.441406 24.160156 22.558594 24.640625 22.558594 L 24.800781 22.558594 L 29.601562 21.441406 L 32.800781 21.121094 C 35.039062 21.121094 37.601562 21.601562 40.320312 22.558594 L 40.640625 22.558594 C 43.359375 21.921875 45.921875 21.601562 48.320312 21.601562 C 53.28125 21.601562 58.078125 22.71875 62.878906 24.960938 C 63.679688 25.441406 64 25.921875 64 26.398438 C 64 26.71875 63.679688 27.039062 63.199219 27.199219 C 62.71875 27.519531 62.398438 27.679688 62.238281 27.679688 L 57.441406 27.679688 C 51.679688 27.679688 46.71875 29.441406 42.398438 33.121094 C 40 35.519531 38.71875 37.601562 38.71875 39.199219 C 38.71875 40.640625 39.839844 41.761719 42.238281 42.238281 C 42.878906 42.398438 44 42.398438 45.761719 42.558594 C 46.71875 42.558594 48.800781 42.398438 52 42.078125 L 52.320312 42.078125 C 52.480469 42.078125 52.800781 42.238281 53.121094 42.558594 C 53.761719 42.558594 54.078125 42.878906 54.238281 43.519531 L 54.238281 43.679688 C 54.238281 44.960938 50.238281 46.238281 42.078125 47.199219 C 40.800781 47.359375 39.359375 47.359375 37.601562 47.519531 C 32.480469 47.519531 28.640625 46.558594 26.078125 44.480469 C 23.359375 42.71875 21.761719 40.800781 20.960938 38.71875 L 20.960938 37.921875 C 20.960938 37.28125 21.441406 36.960938 22.238281 36.960938 L 24.320312 37.28125 C 25.601562 37.28125 26.398438 36.640625 26.878906 35.199219 L 27.039062 34.238281 L 27.039062 33.761719 C 27.039062 31.039062 24.640625 27.519531 20 23.199219 C 17.441406 20.960938 15.039062 19.199219 12.960938 17.921875 C 8.640625 15.359375 5.601562 14.078125 3.839844 14.078125 C 2.078125 14.238281 1.28125 15.039062 1.28125 16.480469 C 1.28125 17.921875 2.558594 20.160156 4.960938 23.199219 L 10.71875 29.28125 C 9.121094 28 6.878906 25.921875 4.160156 23.199219 C 1.28125 20.640625 0 18.238281 0 16 C 0 14.078125 1.121094 12.960938 3.519531 12.800781 Z M 31.359375 25.28125 C 31.359375 26.398438 32.480469 27.199219 34.71875 27.519531 L 36 27.519531 C 37.761719 27.519531 39.199219 27.199219 40.320312 26.398438 L 40.480469 25.921875 L 40.480469 25.761719 C 40.480469 24.800781 38.878906 24 35.519531 23.519531 L 33.921875 23.359375 C 32.480469 23.359375 31.519531 23.839844 31.359375 24.800781 Z M 13.601562 30.558594 C 15.359375 30.558594 16.800781 31.359375 17.921875 33.121094 C 18.238281 33.601562 18.398438 34.078125 18.398438 34.558594 L 18.398438 34.71875 C 18.398438 35.519531 17.761719 36 16.480469 36.160156 C 14.878906 36.160156 13.601562 35.359375 12.320312 33.761719 C 12 33.28125 11.839844 32.800781 11.839844 32.480469 L 11.839844 32 C 11.839844 31.199219 12.480469 30.71875 13.601562 30.558594 Z M 13.601562 30.558594 "/>
</g>
</svg>
