<?xml version="1.0" encoding="UTF-8"?>
<svg xmlns="http://www.w3.org/2000/svg" xmlns:xlink="http://www.w3.org/1999/xlink" width="64pt" height="64pt" viewBox="0 0 64 64" version="1.1">
<g id="surface1">
<path style=" stroke:none;fill-rule:nonzero;fill:rgb(0%,0%,0%);fill-opacity:1;" d="M 62.160156 8.265625 C 63.246094 9.160156 63.390625 10.480469 63.402344 11.550781 C 63.40625 11.835938 63.40625 12.074219 63.402344 12.320312 C 63.394531 13.496094 63.402344 16.734375 63.402344 16.734375 L 63.402344 25.28125 C 63.402344 25.28125 63.410156 29.199219 63.402344 30.625 C 63.402344 31.296875 63.40625 31.960938 63.402344 32.769531 C 63.398438 33.925781 63.21875 35.085938 62.699219 36.03125 C 62.042969 37.261719 60.804688 38.054688 59.519531 38.503906 C 41.367188 44.679688 24.816406 50.414062 6.660156 56.589844 C 5.8125 56.90625 4.972656 57.101562 3.96875 56.914062 C 3.167969 56.742188 2.445312 56.367188 1.941406 55.765625 C 0.816406 54.511719 0.644531 53.34375 0.617188 52.039062 C 0.613281 51.101562 0.617188 48.453125 0.617188 48.453125 L 0.617188 35.929688 C 0.617188 35.929688 0.617188 33.789062 0.617188 32.699219 C 0.601562 31.261719 0.636719 29.285156 1.472656 28.09375 C 2.289062 26.90625 3.695312 26.117188 5.046875 25.644531 C 23.335938 19.667969 36.085938 14.792969 54.375 8.816406 C 55.988281 8.3125 55.722656 8.394531 56.609375 8.097656 C 58.710938 7.390625 60.167969 6.644531 62.160156 8.265625 Z M 62.160156 8.265625 "/>
<path style=" stroke:none;fill-rule:nonzero;fill:rgb(100%,100%,100%);fill-opacity:1;" d="M 4.757812 57.441406 C 4.480469 57.441406 4.191406 57.414062 3.886719 57.359375 C 2.925781 57.15625 2.136719 56.703125 1.59375 56.054688 C 0.324219 54.640625 0.191406 53.300781 0.164062 52.050781 C 0.160156 51.101562 0.164062 48.453125 0.164062 48.453125 L 0.164062 35.929688 C 0.164062 35.925781 0.164062 33.789062 0.164062 32.699219 C 0.144531 30.898438 0.246094 29.058594 1.101562 27.835938 C 2.070312 26.429688 3.699219 25.636719 4.898438 25.21875 C 14.03125 22.230469 21.910156 19.476562 29.527344 16.8125 C 37.167969 14.140625 45.070312 11.378906 54.234375 8.386719 C 55.605469 7.957031 55.617188 7.953125 56.132812 7.777344 L 56.464844 7.667969 C 56.65625 7.601562 56.847656 7.535156 57.03125 7.472656 C 58.863281 6.835938 60.445312 6.285156 62.445312 7.914062 C 63.671875 8.925781 63.84375 10.386719 63.855469 11.542969 C 63.859375 11.832031 63.859375 12.074219 63.855469 12.320312 C 63.847656 13.480469 63.855469 16.703125 63.855469 16.734375 L 63.855469 25.28125 C 63.855469 25.320312 63.863281 29.214844 63.855469 30.625 L 63.855469 31.039062 C 63.859375 31.574219 63.859375 32.128906 63.855469 32.773438 C 63.847656 34.171875 63.59375 35.34375 63.097656 36.25 C 62.289062 37.757812 60.785156 38.542969 59.667969 38.933594 C 50.566406 42.03125 41.722656 45.066406 33.171875 48 C 24.660156 50.921875 15.859375 53.941406 6.804688 57.019531 C 6.230469 57.234375 5.550781 57.441406 4.757812 57.441406 Z M 59.726562 7.75 C 58.992188 7.75 58.238281 8.011719 57.328125 8.328125 C 57.140625 8.394531 56.949219 8.460938 56.75 8.527344 L 56.421875 8.636719 C 55.90625 8.8125 55.886719 8.820312 54.511719 9.246094 C 45.359375 12.238281 37.460938 15 29.824219 17.667969 C 22.203125 20.335938 14.324219 23.089844 5.1875 26.074219 C 4.125 26.445312 2.675781 27.144531 1.84375 28.351562 C 1.039062 29.507812 1.0625 31.660156 1.070312 32.695312 C 1.070312 33.789062 1.070312 35.929688 1.070312 35.929688 L 1.070312 48.453125 C 1.070312 48.457031 1.066406 51.101562 1.070312 52.039062 C 1.097656 53.382812 1.304688 54.378906 2.277344 55.460938 C 2.699219 55.964844 3.3125 56.308594 4.066406 56.46875 C 5.015625 56.648438 5.800781 56.429688 6.503906 56.167969 C 15.570312 53.082031 24.367188 50.0625 32.878906 47.140625 C 41.429688 44.207031 50.273438 41.171875 59.375 38.074219 C 60.335938 37.738281 61.628906 37.070312 62.300781 35.816406 C 62.726562 35.039062 62.945312 34.015625 62.953125 32.765625 C 62.957031 32.125 62.953125 31.574219 62.953125 31.039062 L 62.953125 30.625 C 62.960938 29.210938 62.953125 25.320312 62.953125 25.28125 L 62.953125 16.734375 C 62.953125 16.703125 62.945312 13.480469 62.953125 12.316406 C 62.953125 12.074219 62.957031 11.835938 62.953125 11.554688 C 62.941406 10.53125 62.804688 9.382812 61.875 8.613281 C 61.09375 7.980469 60.414062 7.75 59.726562 7.75 Z M 59.726562 7.75 "/>
<path style=" stroke:none;fill-rule:nonzero;fill:rgb(100%,93.72549%,0%);fill-opacity:1;" d="M 50.945312 13.910156 C 53.96875 12.875 56.640625 11.976562 59.664062 10.945312 C 59.789062 10.90625 59.832031 10.953125 59.832031 11.046875 C 59.832031 11.167969 59.832031 11.605469 59.832031 11.605469 L 59.832031 21.808594 C 59.832031 21.808594 59.839844 25.957031 59.832031 27.699219 C 59.816406 30.78125 59.832031 32.945312 59.832031 32.945312 C 59.832031 32.945312 59.839844 34.320312 59.835938 35.007812 C 59.835938 35.054688 59.792969 35.085938 59.753906 35.097656 C 56.859375 36.074219 53.96875 37.054688 51.074219 38.03125 C 51.011719 38.066406 50.9375 38.015625 50.945312 37.945312 C 50.933594 36.371094 50.945312 33.226562 50.945312 33.226562 L 50.945312 15.023438 C 50.945312 15.023438 50.949219 14.207031 50.945312 13.910156 Z M 50.945312 13.910156 "/>
<path style=" stroke:none;fill-rule:nonzero;fill:rgb(100%,93.72549%,0%);fill-opacity:1;" d="M 49.4375 14.359375 C 49.550781 14.328125 49.699219 14.410156 49.699219 14.523438 C 49.707031 15.394531 49.699219 17.351562 49.699219 17.351562 L 49.699219 33.125 C 49.699219 33.125 49.671875 34.714844 49.699219 35.859375 C 49.710938 36.207031 49.707031 36.558594 49.710938 36.824219 C 49.722656 36.914062 49.601562 36.953125 49.5625 36.875 C 46.628906 33.097656 43.695312 29.324219 40.761719 25.546875 C 40.714844 25.476562 40.632812 25.421875 40.628906 25.328125 C 40.628906 22.679688 40.621094 20.054688 40.625 17.40625 C 40.625 17.367188 40.648438 17.328125 40.675781 17.316406 C 43.585938 16.332031 46.53125 15.34375 49.4375 14.359375 Z M 49.4375 14.359375 "/>
<path style=" stroke:none;fill-rule:nonzero;fill:rgb(100%,93.72549%,0%);fill-opacity:1;" d="M 30.832031 20.707031 C 32.128906 20.273438 33.171875 19.921875 34.46875 19.488281 C 34.570312 19.445312 34.617188 19.566406 34.671875 19.628906 C 39.523438 25.871094 44.375 32.117188 49.230469 38.363281 C 49.277344 38.433594 49.375 38.503906 49.339844 38.601562 C 46.414062 39.605469 43.484375 40.59375 40.558594 41.59375 C 40.515625 41.613281 40.464844 41.609375 40.4375 41.566406 C 39.585938 40.441406 38.738281 39.308594 37.882812 38.183594 C 35.53125 38.984375 33.179688 39.78125 30.828125 40.578125 C 30.765625 40.613281 30.695312 40.554688 30.707031 40.488281 C 30.691406 38.976562 30.714844 37.507812 30.699219 35.996094 C 30.707031 35.875 30.726562 35.835938 30.867188 35.789062 C 32.292969 35.289062 33.566406 34.847656 34.996094 34.351562 C 33.535156 32.410156 32.261719 30.703125 30.800781 28.765625 C 30.6875 28.59375 30.707031 28.597656 30.707031 28.558594 C 30.707031 28.449219 30.707031 28.078125 30.707031 28.078125 L 30.707031 24.652344 C 30.707031 24.652344 30.703125 23.902344 30.707031 23.53125 C 30.710938 22.769531 30.703125 22.179688 30.707031 21.410156 C 30.707031 21.269531 30.707031 21.054688 30.707031 20.902344 C 30.707031 20.726562 30.738281 20.734375 30.832031 20.707031 Z M 30.832031 20.707031 "/>
<path style=" stroke:none;fill-rule:nonzero;fill:rgb(100%,93.72549%,0%);fill-opacity:1;" d="M 29.226562 21.277344 C 29.445312 21.207031 29.59375 21.3125 29.59375 21.472656 C 29.59375 22.289062 29.59375 23.519531 29.59375 23.519531 C 29.59375 23.519531 29.585938 25.371094 29.59375 28.019531 C 29.59375 29.164062 29.589844 31.898438 29.589844 31.898438 C 29.589844 31.898438 29.589844 32.761719 29.59375 33.195312 C 29.601562 34.90625 29.59375 38.429688 29.59375 38.429688 C 29.59375 38.429688 29.585938 39.914062 29.59375 40.628906 C 29.605469 41.820312 29.597656 42.859375 29.59375 43.875 C 29.59375 43.960938 29.46875 43.972656 29.433594 43.902344 C 26.5625 40.234375 23.65625 36.539062 20.789062 32.867188 C 20.789062 32.652344 20.789062 32.15625 20.789062 32.15625 L 20.792969 29.621094 C 20.792969 29.621094 20.789062 27.839844 20.789062 26.972656 C 20.789062 26.53125 20.792969 25.398438 20.792969 25.398438 L 20.792969 25.050781 C 20.792969 25.050781 20.792969 24.617188 20.789062 24.425781 C 20.789062 24.171875 20.804688 24.148438 20.902344 24.09375 C 23.753906 23.128906 26.375 22.242188 29.226562 21.277344 Z M 29.226562 21.277344 "/>
<path style=" stroke:none;fill-rule:nonzero;fill:rgb(100%,93.72549%,0%);fill-opacity:1;" d="M 13.152344 26.777344 C 13.210938 26.75 13.289062 26.800781 13.28125 26.875 C 13.246094 34.816406 13.308594 42.597656 13.28125 50.542969 C 13.277344 50.644531 13.328125 50.902344 13.128906 50.957031 C 10.21875 51.945312 7.382812 52.902344 4.472656 53.886719 C 4.265625 53.957031 4.265625 53.808594 4.265625 53.734375 C 4.261719 53.171875 4.265625 52.050781 4.265625 52.050781 L 4.265625 35 L 4.269531 30.824219 C 4.269531 30.824219 4.269531 30.230469 4.265625 30 C 4.265625 29.824219 4.328125 29.777344 4.441406 29.730469 C 7.445312 28.710938 10.148438 27.796875 13.152344 26.777344 Z M 13.152344 26.777344 "/>
<path style=" stroke:none;fill-rule:nonzero;fill:rgb(100%,93.72549%,0%);fill-opacity:1;" d="M 14.476562 26.964844 C 14.519531 26.9375 14.578125 26.953125 14.605469 26.996094 C 19.410156 33.128906 24.269531 39.257812 29.074219 45.390625 C 29.132812 45.4375 29.109375 45.53125 29.03125 45.539062 C 26.132812 46.523438 23.226562 47.507812 20.324219 48.488281 C 20.234375 48.535156 20.183594 48.425781 20.136719 48.367188 C 18.273438 45.9375 16.410156 43.511719 14.542969 41.082031 C 14.507812 41.027344 14.445312 40.980469 14.449219 40.910156 C 14.464844 36.289062 14.4375 31.667969 14.449219 27.042969 C 14.449219 27.015625 14.457031 26.988281 14.476562 26.964844 Z M 14.476562 26.964844 "/>
</g>
</svg>
