<?xml version="1.0" encoding="UTF-8"?>
<svg xmlns="http://www.w3.org/2000/svg" xmlns:xlink="http://www.w3.org/1999/xlink" width="64pt" height="64pt" viewBox="0 0 64 64" version="1.1">
<g id="surface1">
<path style=" stroke:none;fill-rule:nonzero;fill:rgb(65.882353%,54.509804%,39.607843%);fill-opacity:1;" d="M 63.855469 15.167969 C 63.84375 15.308594 63.832031 15.453125 63.808594 15.585938 C 63.484375 22.496094 60.988281 28.84375 56.980469 33.957031 C 57.027344 33.308594 57.054688 32.648438 57.054688 31.988281 C 57.054688 29.839844 56.789062 27.765625 56.273438 25.773438 C 58.046875 25.195312 59.753906 24.488281 61.382812 23.625 C 59.65625 24.175781 57.855469 24.585938 56.019531 24.847656 C 53.65625 16.882812 47.441406 10.558594 39.523438 8.074219 C 33.835938 3.058594 26.359375 0.0117188 18.164062 0.0117188 C 17.15625 0.0117188 16.148438 0.0585938 15.167969 0.15625 C 15.308594 0.167969 15.453125 0.179688 15.585938 0.203125 C 22.496094 0.515625 28.820312 3.011719 33.933594 6.996094 C 33.296875 6.945312 32.648438 6.921875 32 6.921875 C 29.839844 6.921875 27.753906 7.199219 25.75 7.703125 C 25.183594 5.953125 24.464844 4.257812 23.625 2.640625 C 24.175781 4.355469 24.585938 6.132812 24.835938 7.953125 C 16.859375 10.332031 10.546875 16.570312 8.0625 24.5 C 3.046875 30.199219 0 37.675781 0 45.871094 C 0 46.878906 0.046875 47.886719 0.144531 48.871094 C 0.15625 48.726562 0.167969 48.582031 0.191406 48.449219 C 0.515625 41.539062 3.011719 35.191406 7.007812 30.09375 C 6.960938 30.714844 6.933594 31.351562 6.933594 31.988281 C 6.933594 34.148438 7.210938 36.234375 7.714844 38.226562 C 5.9375 38.804688 4.222656 39.523438 2.589844 40.375 C 4.332031 39.824219 6.132812 39.402344 7.980469 39.152344 C 10.34375 47.082031 16.523438 53.371094 24.40625 55.878906 C 30.105469 60.929688 37.617188 63.988281 45.835938 63.988281 C 46.84375 63.988281 47.851562 63.941406 48.832031 63.84375 C 48.691406 63.832031 48.546875 63.820312 48.414062 63.796875 C 41.492188 63.472656 35.144531 60.964844 30.03125 56.96875 C 30.691406 57.015625 31.351562 57.054688 32.023438 57.054688 C 34.171875 57.054688 36.257812 56.777344 38.261719 56.273438 C 38.839844 58.046875 39.546875 59.765625 40.410156 61.394531 C 39.859375 59.667969 39.449219 57.867188 39.1875 56.019531 C 47.09375 53.644531 53.394531 47.453125 55.902344 39.558594 C 60.941406 33.859375 64 26.359375 64 18.152344 C 63.988281 17.144531 63.941406 16.148438 63.855469 15.167969 Z M 55.457031 24.921875 C 54.171875 25.078125 52.867188 25.160156 51.546875 25.160156 C 50.921875 25.160156 50.308594 25.136719 49.699219 25.113281 C 49.648438 24.898438 49.589844 24.679688 49.542969 24.453125 C 49.542969 24.441406 49.53125 24.429688 49.53125 24.40625 C 49.46875 24.164062 49.398438 23.914062 49.335938 23.671875 C 49.335938 23.660156 49.335938 23.660156 49.335938 23.648438 C 49.265625 23.398438 49.195312 23.15625 49.121094 22.90625 C 47.488281 17.566406 44.515625 12.8125 40.589844 9.035156 C 47.707031 11.699219 53.25 17.589844 55.457031 24.921875 Z M 26.398438 18.308594 C 26.445312 18.273438 26.492188 18.238281 26.527344 18.191406 C 26.660156 18.082031 26.804688 17.960938 26.9375 17.855469 C 26.949219 17.839844 26.960938 17.839844 26.960938 17.828125 C 27.355469 17.503906 27.765625 17.195312 28.171875 16.894531 C 28.207031 16.871094 28.246094 16.832031 28.28125 16.808594 C 28.652344 16.535156 29.035156 16.269531 29.421875 16.019531 C 29.492188 15.96875 29.5625 15.921875 29.636719 15.875 C 29.746094 15.800781 29.851562 15.742188 29.949219 15.671875 C 30.042969 15.609375 30.140625 15.550781 30.234375 15.488281 C 30.367188 15.40625 30.488281 15.335938 30.621094 15.261719 C 30.753906 15.179688 30.882812 15.105469 31.027344 15.023438 C 31.113281 14.972656 31.195312 14.925781 31.269531 14.878906 C 31.398438 14.804688 31.519531 14.734375 31.652344 14.664062 C 31.722656 14.625 31.785156 14.589844 31.855469 14.554688 C 32.046875 14.445312 32.238281 14.351562 32.433594 14.242188 C 32.480469 14.21875 32.539062 14.195312 32.589844 14.160156 C 32.742188 14.074219 32.910156 14.003906 33.066406 13.917969 C 33.128906 13.894531 33.1875 13.859375 33.246094 13.835938 C 33.453125 13.738281 33.65625 13.640625 33.871094 13.546875 C 33.355469 13.523438 32.851562 13.511719 32.335938 13.511719 C 32.058594 13.511719 31.785156 13.511719 31.507812 13.523438 C 31.398438 13.523438 31.28125 13.535156 31.171875 13.535156 C 31.003906 13.535156 30.847656 13.546875 30.691406 13.558594 C 30.546875 13.570312 30.402344 13.582031 30.25 13.582031 C 30.128906 13.59375 29.996094 13.59375 29.875 13.605469 C 29.707031 13.617188 29.539062 13.628906 29.371094 13.652344 C 29.277344 13.667969 29.179688 13.667969 29.074219 13.679688 C 28.878906 13.703125 28.699219 13.714844 28.507812 13.738281 C 28.425781 13.75 28.351562 13.75 28.269531 13.761719 C 28.066406 13.785156 27.859375 13.824219 27.667969 13.847656 C 27.609375 13.859375 27.546875 13.859375 27.476562 13.871094 C 27.34375 13.894531 27.210938 13.90625 27.082031 13.929688 C 26.875 11.988281 26.46875 10.089844 25.917969 8.253906 C 27.859375 7.761719 29.898438 7.5 32 7.5 C 32.925781 7.5 33.835938 7.546875 34.734375 7.65625 C 38.730469 10.992188 41.910156 15.261719 43.9375 20.132812 C 43.722656 20.132812 43.519531 20.121094 43.300781 20.121094 C 40.472656 20.121094 37.734375 20.480469 35.121094 21.164062 C 34.304688 20.300781 33.441406 19.472656 32.539062 18.707031 C 33.261719 19.546875 33.933594 20.421875 34.554688 21.320312 C 30.609375 22.425781 26.972656 24.261719 23.78125 26.671875 C 23.722656 25.90625 23.695312 25.125 23.695312 24.332031 C 23.695312 23.085938 23.769531 21.847656 23.914062 20.636719 C 24.933594 21.667969 25.867188 22.773438 26.746094 23.9375 C 27.714844 23.375 28.722656 22.855469 29.769531 22.402344 C 28.761719 20.949219 27.621094 19.582031 26.398438 18.308594 Z M 36.175781 23.902344 C 38.25 27.597656 39.617188 31.746094 40.097656 36.152344 C 36.390625 38.238281 32.226562 39.605469 27.800781 40.085938 C 25.738281 36.390625 24.367188 32.238281 23.890625 27.835938 C 27.597656 25.761719 31.746094 24.382812 36.175781 23.902344 Z M 24.910156 8.53125 C 25.066406 9.828125 25.148438 11.160156 25.148438 12.492188 C 25.148438 13.113281 25.125 13.726562 25.101562 14.339844 C 24.886719 14.386719 24.667969 14.445312 24.441406 14.496094 C 24.429688 14.496094 24.417969 14.507812 24.394531 14.507812 C 24.152344 14.566406 23.902344 14.636719 23.660156 14.699219 C 23.648438 14.699219 23.648438 14.699219 23.636719 14.699219 C 23.386719 14.769531 23.144531 14.84375 22.894531 14.914062 C 17.554688 16.546875 12.800781 19.523438 9.023438 23.445312 C 11.675781 16.316406 17.566406 10.75 24.910156 8.53125 Z M 7.5 31.988281 C 7.5 31.074219 7.546875 30.175781 7.644531 29.289062 C 10.964844 25.304688 15.238281 22.125 20.109375 20.109375 C 20.109375 20.324219 20.097656 20.53125 20.097656 20.746094 C 20.097656 23.566406 20.457031 26.300781 21.140625 28.917969 C 20.277344 29.71875 19.472656 30.570312 18.707031 31.472656 C 19.535156 30.765625 20.398438 30.105469 21.296875 29.480469 C 22.402344 33.414062 24.226562 37.039062 26.625 40.21875 C 25.855469 40.277344 25.066406 40.304688 24.285156 40.304688 C 23.039062 40.304688 21.800781 40.230469 20.589844 40.085938 C 21.621094 39.066406 22.726562 38.132812 23.890625 37.253906 C 23.324219 36.285156 22.808594 35.277344 22.351562 34.230469 C 20.902344 35.238281 19.535156 36.367188 18.261719 37.601562 C 18.226562 37.554688 18.175781 37.519531 18.140625 37.472656 C 18.035156 37.339844 17.914062 37.195312 17.804688 37.0625 C 17.792969 37.050781 17.792969 37.039062 17.78125 37.039062 C 17.457031 36.644531 17.144531 36.234375 16.847656 35.828125 C 16.820312 35.792969 16.785156 35.753906 16.761719 35.71875 C 16.484375 35.347656 16.222656 34.964844 15.96875 34.578125 C 15.921875 34.507812 15.875 34.4375 15.824219 34.363281 C 15.753906 34.253906 15.695312 34.148438 15.621094 34.050781 C 15.5625 33.957031 15.503906 33.859375 15.441406 33.765625 C 15.359375 33.632812 15.285156 33.511719 15.214844 33.378906 C 15.128906 33.246094 15.058594 33.117188 14.972656 32.972656 C 14.925781 32.886719 14.878906 32.804688 14.832031 32.730469 C 14.757812 32.601562 14.6875 32.480469 14.613281 32.347656 C 14.578125 32.277344 14.542969 32.214844 14.507812 32.144531 C 14.398438 31.953125 14.300781 31.761719 14.195312 31.566406 C 14.171875 31.519531 14.144531 31.460938 14.109375 31.410156 C 14.027344 31.257812 13.953125 31.089844 13.871094 30.933594 C 13.847656 30.871094 13.808594 30.8125 13.785156 30.753906 C 13.691406 30.546875 13.59375 30.34375 13.5 30.128906 C 13.472656 30.644531 13.460938 31.148438 13.460938 31.664062 C 13.460938 31.941406 13.460938 32.214844 13.472656 32.492188 C 13.472656 32.601562 13.484375 32.71875 13.484375 32.828125 C 13.484375 32.996094 13.5 33.152344 13.511719 33.308594 C 13.523438 33.453125 13.535156 33.597656 13.535156 33.75 C 13.546875 33.871094 13.546875 34.003906 13.558594 34.125 C 13.570312 34.292969 13.582031 34.460938 13.605469 34.628906 C 13.617188 34.722656 13.617188 34.820312 13.628906 34.925781 C 13.652344 35.121094 13.667969 35.300781 13.691406 35.492188 C 13.703125 35.574219 13.703125 35.648438 13.714844 35.730469 C 13.738281 35.933594 13.773438 36.140625 13.796875 36.332031 C 13.808594 36.390625 13.808594 36.453125 13.824219 36.523438 C 13.847656 36.65625 13.859375 36.789062 13.882812 36.917969 C 11.949219 37.136719 10.066406 37.53125 8.242188 38.082031 C 7.761719 36.117188 7.5 34.074219 7.5 31.988281 Z M 20.578125 40.0625 C 20.578125 40.0625 20.578125 40.074219 20.578125 40.0625 C 20.578125 40.074219 20.578125 40.0625 20.578125 40.0625 Z M 8.542969 39.078125 C 9.816406 38.921875 11.121094 38.851562 12.441406 38.851562 C 13.066406 38.851562 13.679688 38.875 14.289062 38.898438 C 14.339844 39.113281 14.398438 39.332031 14.445312 39.558594 C 14.445312 39.570312 14.457031 39.582031 14.457031 39.605469 C 14.519531 39.847656 14.589844 40.097656 14.648438 40.339844 C 14.648438 40.351562 14.648438 40.351562 14.648438 40.363281 C 14.722656 40.613281 14.792969 40.855469 14.867188 41.105469 C 16.484375 46.421875 19.4375 51.148438 23.335938 54.917969 C 16.257812 52.230469 10.75 46.375 8.542969 39.078125 Z M 37.589844 45.714844 C 37.542969 45.75 37.507812 45.796875 37.460938 45.835938 C 37.328125 45.941406 37.183594 46.0625 37.050781 46.171875 C 37.039062 46.183594 37.027344 46.183594 37.027344 46.195312 C 36.632812 46.519531 36.222656 46.832031 35.816406 47.128906 C 35.78125 47.152344 35.742188 47.191406 35.707031 47.214844 C 35.335938 47.488281 34.953125 47.753906 34.566406 48.007812 C 34.496094 48.054688 34.421875 48.101562 34.351562 48.148438 C 34.242188 48.222656 34.136719 48.28125 34.039062 48.355469 C 33.945312 48.414062 33.847656 48.472656 33.75 48.535156 C 33.621094 48.617188 33.5 48.691406 33.367188 48.761719 C 33.234375 48.847656 33.105469 48.917969 32.960938 49 C 32.875 49.050781 32.792969 49.097656 32.71875 49.144531 C 32.589844 49.21875 32.46875 49.289062 32.335938 49.363281 C 32.265625 49.398438 32.203125 49.433594 32.132812 49.46875 C 31.941406 49.578125 31.746094 49.671875 31.554688 49.78125 C 31.507812 49.804688 31.449219 49.828125 31.398438 49.867188 C 31.242188 49.949219 31.074219 50.023438 30.921875 50.105469 C 30.859375 50.128906 30.800781 50.164062 30.738281 50.191406 C 30.535156 50.285156 30.332031 50.382812 30.117188 50.476562 C 30.632812 50.5 31.136719 50.515625 31.652344 50.515625 C 31.929688 50.515625 32.203125 50.515625 32.480469 50.5 C 32.589844 50.5 32.707031 50.488281 32.816406 50.488281 C 32.984375 50.488281 33.140625 50.476562 33.296875 50.464844 C 33.441406 50.453125 33.582031 50.441406 33.738281 50.441406 C 33.859375 50.429688 33.992188 50.429688 34.113281 50.417969 C 34.28125 50.40625 34.449219 50.394531 34.617188 50.371094 C 34.710938 50.359375 34.808594 50.359375 34.914062 50.347656 C 35.109375 50.320312 35.289062 50.308594 35.480469 50.285156 C 35.5625 50.273438 35.636719 50.273438 35.71875 50.261719 C 35.921875 50.238281 36.128906 50.203125 36.320312 50.175781 C 36.378906 50.164062 36.4375 50.164062 36.511719 50.152344 C 36.644531 50.128906 36.777344 50.117188 36.90625 50.09375 C 37.125 52.039062 37.519531 53.921875 38.070312 55.734375 C 36.128906 56.226562 34.101562 56.488281 32.011719 56.488281 C 31.0625 56.488281 30.140625 56.429688 29.214844 56.332031 C 25.246094 53.007812 22.078125 48.75 20.0625 43.890625 C 20.277344 43.890625 20.480469 43.902344 20.699219 43.902344 C 23.515625 43.902344 26.253906 43.542969 28.867188 42.859375 C 29.683594 43.734375 30.558594 44.5625 31.472656 45.355469 C 30.753906 44.515625 30.066406 43.625 29.445312 42.714844 C 33.390625 41.609375 37.039062 39.761719 40.230469 37.351562 C 40.289062 38.132812 40.316406 38.921875 40.316406 39.714844 C 40.316406 40.960938 40.242188 42.199219 40.097656 43.410156 C 39.078125 42.378906 38.144531 41.273438 37.265625 40.109375 C 36.296875 40.675781 35.289062 41.191406 34.242188 41.648438 C 35.238281 43.085938 36.367188 44.453125 37.589844 45.714844 Z M 40.074219 43.398438 Z M 39.078125 55.445312 C 38.921875 54.160156 38.839844 52.867188 38.839844 51.546875 C 38.839844 50.921875 38.863281 50.308594 38.886719 49.699219 C 39.101562 49.648438 39.320312 49.589844 39.546875 49.542969 C 39.558594 49.542969 39.570312 49.53125 39.59375 49.53125 C 39.835938 49.46875 40.085938 49.398438 40.328125 49.335938 C 40.339844 49.335938 40.339844 49.335938 40.351562 49.335938 C 40.601562 49.265625 40.84375 49.195312 41.09375 49.121094 C 46.421875 47.503906 51.160156 44.539062 54.929688 40.625 C 52.253906 47.707031 46.386719 53.238281 39.078125 55.445312 Z M 56.332031 34.757812 C 53.007812 38.742188 48.738281 41.910156 43.878906 43.925781 C 43.878906 43.710938 43.890625 43.507812 43.890625 43.289062 C 43.890625 40.457031 43.519531 37.710938 42.835938 35.09375 C 43.699219 34.292969 44.503906 33.441406 45.269531 32.539062 C 44.441406 33.246094 43.578125 33.90625 42.679688 34.53125 C 41.574219 30.597656 39.738281 26.972656 37.339844 23.792969 C 38.121094 23.734375 38.898438 23.710938 39.691406 23.710938 C 40.9375 23.710938 42.175781 23.78125 43.386719 23.925781 C 42.355469 24.945312 41.25 25.878906 40.085938 26.757812 C 40.652344 27.730469 41.167969 28.738281 41.621094 29.78125 C 43.074219 28.773438 44.441406 27.632812 45.714844 26.410156 C 45.75 26.457031 45.785156 26.503906 45.835938 26.539062 C 45.941406 26.671875 46.0625 26.816406 46.171875 26.949219 C 46.183594 26.960938 46.183594 26.972656 46.195312 26.972656 C 46.519531 27.367188 46.832031 27.777344 47.128906 28.183594 C 47.152344 28.21875 47.191406 28.257812 47.214844 28.292969 C 47.488281 28.664062 47.753906 29.046875 48.007812 29.433594 C 48.054688 29.503906 48.101562 29.578125 48.148438 29.648438 C 48.222656 29.757812 48.28125 29.863281 48.355469 29.960938 C 48.414062 30.054688 48.472656 30.152344 48.535156 30.25 C 48.617188 30.378906 48.691406 30.5 48.761719 30.632812 C 48.847656 30.765625 48.917969 30.894531 49 31.039062 C 49.050781 31.125 49.097656 31.207031 49.144531 31.28125 C 49.21875 31.410156 49.289062 31.53125 49.363281 31.664062 C 49.398438 31.734375 49.433594 31.796875 49.46875 31.867188 C 49.578125 32.058594 49.671875 32.253906 49.78125 32.445312 C 49.804688 32.492188 49.828125 32.550781 49.867188 32.601562 C 49.949219 32.757812 50.023438 32.925781 50.105469 33.078125 C 50.128906 33.140625 50.164062 33.199219 50.191406 33.261719 C 50.285156 33.464844 50.382812 33.667969 50.476562 33.882812 C 50.5 33.367188 50.515625 32.863281 50.515625 32.347656 C 50.515625 32.070312 50.515625 31.796875 50.5 31.519531 C 50.5 31.410156 50.488281 31.292969 50.488281 31.183594 C 50.488281 31.015625 50.476562 30.859375 50.464844 30.703125 C 50.453125 30.558594 50.441406 30.417969 50.441406 30.261719 C 50.429688 30.140625 50.429688 30.007812 50.417969 29.886719 C 50.40625 29.71875 50.394531 29.550781 50.371094 29.382812 C 50.359375 29.289062 50.359375 29.191406 50.347656 29.085938 C 50.320312 28.890625 50.308594 28.710938 50.285156 28.519531 C 50.273438 28.4375 50.273438 28.363281 50.261719 28.28125 C 50.238281 28.078125 50.203125 27.871094 50.175781 27.679688 C 50.164062 27.621094 50.164062 27.5625 50.152344 27.488281 C 50.128906 27.355469 50.117188 27.222656 50.09375 27.09375 C 52.039062 26.875 53.921875 26.480469 55.746094 25.929688 C 56.238281 27.859375 56.5 29.886719 56.5 31.976562 C 56.488281 32.925781 56.441406 33.847656 56.332031 34.757812 Z M 56.332031 34.757812 "/>
</g>
</svg>
