<?xml version="1.0" encoding="UTF-8"?>
<svg xmlns="http://www.w3.org/2000/svg" xmlns:xlink="http://www.w3.org/1999/xlink" width="64pt" height="64pt" viewBox="0 0 64 64" version="1.1">
<g id="surface1">
<path style="fill-rule:nonzero;fill:rgb(11.372549%,12.156863%,11.764706%);fill-opacity:1;stroke-width:1;stroke-linecap:butt;stroke-linejoin:miter;stroke:rgb(100%,100%,100%);stroke-opacity:1;stroke-miterlimit:4;" d="M 14.405164 61.490002 C 120.089648 61.606549 225.704205 61.490002 331.38869 61.490002 C 338.894293 61.606549 346.702917 60.790723 353.905499 63.494604 C 364.511243 67.10755 373.508643 75.289124 378.193817 85.498608 C 382.389496 94.309534 382.809064 104.495709 380.594678 113.889368 C 271.297247 113.79613 161.999817 113.889368 52.609149 113.889368 C 39.78902 96.407373 26.9922 78.995306 14.405164 61.490002 Z M 14.405164 61.490002 " transform="matrix(0.167583,0,0,0.167583,0,0)"/>
<path style="fill-rule:nonzero;fill:rgb(11.372549%,12.156863%,11.764706%);fill-opacity:1;stroke-width:1;stroke-linecap:butt;stroke-linejoin:miter;stroke:rgb(100%,100%,100%);stroke-opacity:1;stroke-miterlimit:4;" d="M 0.0932373 143.88847 C 30.908167 143.492212 61.606549 143.795233 92.398169 143.701996 C 144.308038 143.795233 196.194598 143.608759 248.197705 143.795233 C 244.095264 161.393774 238.897284 178.689294 234.491821 196.101361 C 246.799146 196.101361 259.199707 196.101361 271.507031 196.101361 C 275.70271 196.101361 280.108173 195.588556 283.697809 193.211005 C 288.592767 190.204102 291.692908 185.099359 293.091467 179.598358 C 296.308154 167.594055 299.501532 155.706299 302.601672 143.701996 C 326.703516 143.492212 350.898596 143.492212 375.000439 143.701996 C 370.50174 162.209601 365.30376 180.600659 360.502039 199.108264 C 357.704919 210.902783 350.991833 221.601764 342.507239 229.993121 C 331.691711 240.808649 317.100073 248.803748 301.506134 248.500726 C 274.607172 248.407489 247.708209 248.500726 220.902484 248.500726 C 214.492419 272.392786 208.292139 296.401392 201.695599 320.293451 C 177.593756 320.293451 153.491913 320.409998 129.506616 320.293451 C 140.392072 278.896088 151.394073 237.498724 162.396075 196.101361 C 120.905475 196.008124 79.391565 196.311145 37.900964 196.008124 C 25.290619 178.50282 12.307324 161.510321 0.0932373 143.88847 Z M 0.0932373 143.88847 " transform="matrix(0.167583,0,0,0.167583,0,0)"/>
<path style="fill-rule:nonzero;fill:rgb(93.72549%,16.078431%,25.098039%);fill-opacity:1;stroke-width:1;stroke-linecap:butt;stroke-linejoin:miter;stroke:rgb(93.72549%,16.078431%,25.098039%);stroke-opacity:1;stroke-miterlimit:4;" d="M 57.201086 222.394281 C 128.294531 222.394281 57.201086 222.394281 128.294531 222.394281 C 109.693689 292.601971 128.294531 222.394281 109.693689 292.601971 C 57.201086 222.394281 109.693689 292.601971 57.201086 222.394281 Z M 57.201086 222.394281 " transform="matrix(0.167583,0,0,0.167583,0,0)"/>
</g>
</svg>
