<?xml version="1.0" encoding="UTF-8"?>
<svg xmlns="http://www.w3.org/2000/svg" xmlns:xlink="http://www.w3.org/1999/xlink" width="64pt" height="64pt" viewBox="0 0 64 64" version="1.1">
<g id="surface1">
<path style=" stroke:none;fill-rule:nonzero;fill:rgb(0%,0%,0%);fill-opacity:1;" d="M 55.363281 8.351562 C 53.558594 4.402344 50.453125 1.074219 47.519531 0 C 46.390625 3.105469 38.152344 26.414062 38.152344 26.414062 L 32.113281 16.648438 L 25.847656 26.527344 C 25.847656 26.527344 17.664062 3.21875 16.480469 0.113281 C 13.546875 1.183594 10.441406 4.515625 8.636719 8.464844 C 6.433594 13.320312 6.433594 18.566406 8.523438 23.308594 C 10.160156 26.921875 10.835938 28.558594 11.289062 29.574219 L 8.746094 29.574219 L 9.652344 38.207031 L 16.421875 41.820312 L 14.785156 43.851562 L 14.957031 53.445312 L 18.117188 53.445312 L 19.246094 46.671875 L 21.050781 45.714844 L 32.113281 64.054688 L 42.949219 45.601562 L 44.753906 46.5625 L 45.882812 53.332031 L 49.042969 53.332031 L 49.214844 43.738281 L 47.578125 41.707031 L 54.347656 38.09375 L 55.253906 29.460938 L 52.710938 29.460938 C 52.710938 29.460938 53.839844 26.863281 55.476562 23.253906 C 57.566406 18.453125 57.507812 13.207031 55.363281 8.351562 Z M 55.363281 8.351562 "/>
<path style=" stroke:none;fill-rule:nonzero;fill:rgb(100%,100%,100%);fill-opacity:1;" d="M 25.113281 28.839844 C 25.113281 28.839844 18.117188 9.425781 15.859375 2.484375 C 10.554688 3.894531 5.363281 14.785156 10.214844 23.929688 C 12.527344 28.332031 19.1875 39.394531 19.1875 39.394531 Z M 25.113281 28.839844 "/>
<path style=" stroke:none;fill-rule:nonzero;fill:rgb(100%,100%,100%);fill-opacity:1;" d="M 39 28.839844 C 39 28.839844 45.996094 9.425781 48.253906 2.484375 C 53.617188 3.894531 58.808594 14.785156 53.953125 23.984375 C 51.640625 28.386719 44.980469 39.449219 44.980469 39.449219 Z M 39 28.839844 "/>
<path style=" stroke:none;fill-rule:nonzero;fill:rgb(100%,100%,100%);fill-opacity:1;" d="M 15.125 37.136719 L 12.753906 35.5 L 11.175781 31.265625 L 10.046875 31.265625 L 10.609375 36.796875 L 17.609375 40.972656 Z M 15.125 37.136719 "/>
<path style=" stroke:none;fill-rule:nonzero;fill:rgb(100%,100%,100%);fill-opacity:1;" d="M 51.472656 35.5 L 48.253906 36.855469 L 45.769531 40.746094 L 53.617188 36.796875 L 54.179688 31.265625 L 53.050781 31.265625 Z M 51.472656 35.5 "/>
<path style=" stroke:none;fill-rule:nonzero;fill:rgb(100%,100%,100%);fill-opacity:1;" d="M 32.113281 48.535156 L 25.171875 46.785156 L 24.492188 48.253906 L 32.113281 61.234375 L 39.675781 48.253906 L 39 46.785156 Z M 32.113281 48.535156 "/>
<path style=" stroke:none;fill-rule:nonzero;fill:rgb(100%,77.647059%,16.078431%);fill-opacity:1;" d="M 37.304688 28.613281 C 35.5 25.171875 32.113281 20.261719 32.113281 20.203125 C 32.113281 20.203125 28.671875 25.113281 26.921875 28.613281 L 32.113281 36.910156 Z M 37.304688 28.613281 "/>
<path style=" stroke:none;fill-rule:nonzero;fill:rgb(100%,77.647059%,16.078431%);fill-opacity:1;" d="M 43.003906 39.84375 C 41.652344 37.699219 39.902344 34.765625 38.152344 31.210938 L 32.113281 41.59375 L 26.074219 31.265625 C 24.324219 34.765625 22.574219 37.699219 21.21875 39.902344 L 16.535156 43.683594 L 15.972656 52.542969 L 17.101562 52.542969 L 18.679688 45.035156 L 20.882812 44.132812 L 32.113281 45.65625 L 43.34375 44.132812 L 45.546875 45.035156 L 47.125 52.488281 L 48.253906 52.488281 L 47.691406 43.625 Z M 43.003906 39.84375 "/>
</g>
</svg>
