<?xml version="1.0" encoding="UTF-8"?>
<svg xmlns="http://www.w3.org/2000/svg" xmlns:xlink="http://www.w3.org/1999/xlink" width="64pt" height="64pt" viewBox="0 0 64 64" version="1.1">
<g id="surface1">
<path style=" stroke:none;fill-rule:nonzero;fill:rgb(100%,100%,100%);fill-opacity:1;" d="M 64 8.019531 C 58.382812 4.691406 52.5 2.222656 46.300781 0.777344 L 46.300781 0.78125 L 42.480469 7.941406 C 42.121094 7.882812 41.769531 7.828125 41.425781 7.78125 C 41.320312 7.554688 41.199219 7.359375 41.054688 7.1875 C 39.355469 5.121094 34.292969 5.230469 32.429688 6.15625 C 31.835938 6.453125 31.207031 6.960938 30.550781 7.675781 C 27.75 8.050781 25.050781 8.757812 22.507812 9.785156 L 17.699219 0.777344 C 11.5 2.222656 5.617188 4.691406 0 8.019531 L 7.851562 21.5625 C 7.191406 22.3125 6.105469 24.039062 5.492188 25.230469 C 5.824219 25.855469 6.457031 26.492188 7.105469 26.90625 C 4.890625 29.816406 1.882812 35.265625 0.382812 38.980469 C 7.3125 46.480469 12.601562 50.269531 22.078125 46.105469 L 32 63.222656 L 63.996094 8.03125 Z M 64 8.019531 "/>
<path style=" stroke:none;fill-rule:nonzero;fill:rgb(6.666667%,9.411765%,12.54902%);fill-opacity:1;" d="M 7.171875 25.105469 C 7.503906 25.507812 8.164062 26.082031 9.113281 26.5 C 6.601562 29.757812 3.753906 34.714844 2.015625 38.679688 C 9.675781 46.398438 13.496094 48.566406 22.652344 44.355469 L 32 60.480469 L 62.117188 8.53125 C 57.441406 5.835938 52.371094 3.75 47.007812 2.378906 L 43.222656 9.464844 C 42.273438 9.289062 41.324219 9.140625 40.382812 9.023438 C 40.300781 8.613281 40.171875 8.277344 39.992188 8.058594 C 38.835938 6.65625 34.589844 6.613281 33.046875 7.382812 C 32.488281 7.660156 31.855469 8.242188 31.242188 8.96875 C 27.992188 9.355469 24.855469 10.203125 21.886719 11.542969 L 16.992188 2.371094 C 11.628906 3.742188 6.554688 5.828125 1.882812 8.523438 L 9.492188 21.648438 C 8.679688 22.726562 7.90625 23.878906 7.171875 25.105469 "/>
<path style=" stroke:none;fill-rule:nonzero;fill:rgb(100%,31.372549%,0%);fill-opacity:1;" d="M 19.089844 23.453125 C 19.480469 23.882812 23.292969 24.691406 23.132812 21.691406 C 21.605469 21.808594 20.121094 22.527344 19.089844 23.453125 "/>
<path style=" stroke:none;fill-rule:nonzero;fill:rgb(100%,100%,100%);fill-opacity:1;" d="M 25.941406 36.339844 L 26.335938 34.042969 L 28.980469 34.160156 L 28.1875 31.089844 C 23.382812 33.929688 22.304688 39.363281 21.292969 41.488281 C 23.671875 39.359375 27.476562 37.023438 32.589844 36.167969 C 32.210938 34.46875 31.308594 32.695312 30.382812 31.523438 L 30.644531 35.5 L 27.398438 35.582031 L 26.722656 37.003906 L 24.738281 37.1875 L 23.625 38.769531 L 24.265625 36.703125 Z M 25.941406 36.339844 "/>
<path style=" stroke:none;fill-rule:nonzero;fill:rgb(100%,31.372549%,0%);fill-opacity:1;" d="M 15.601562 12.242188 C 15.878906 11.539062 16.992188 10.398438 18.933594 9.914062 L 16.054688 4.523438 C 12.015625 5.660156 8.109375 7.234375 4.410156 9.214844 L 10.628906 19.949219 C 11.878906 18.5625 13.445312 17.042969 15.347656 15.578125 C 15.175781 14.417969 15.199219 13.246094 15.601562 12.242188 M 45.054688 9.941406 L 47.945312 4.527344 C 51.984375 5.667969 55.886719 7.246094 59.589844 9.226562 L 56.042969 15.34375 C 54.277344 14.222656 51.75 13.164062 49.539062 12.421875 L 50.117188 11.429688 C 48.738281 10.898438 47.019531 10.386719 45.054688 9.941406 "/>
<path style=" stroke:none;fill-rule:nonzero;fill:rgb(100%,100%,100%);fill-opacity:1;" d="M 33.835938 14.753906 C 32.867188 14.535156 31.890625 14.375 30.9375 14.277344 C 32.066406 12.128906 34.96875 10.234375 36.433594 10.667969 C 35.648438 11.105469 34.21875 12.796875 33.835938 14.753906 M 46.820312 13.519531 L 47.40625 12.507812 C 44.96875 11.753906 42.660156 11.246094 40.46875 10.941406 C 40.382812 12.285156 40.058594 13.8125 39.558594 15.027344 C 41.085938 16.085938 42.730469 18.175781 43.089844 20.042969 C 41.820312 18.15625 39.570312 16.703125 37.007812 15.714844 C 37.996094 13.855469 38.828125 10.375 38.1875 9.453125 C 37.632812 8.65625 35.066406 8.550781 33.703125 9.109375 C 32.242188 9.714844 30.300781 11.902344 28.511719 14.125 C 28.664062 13.265625 29.140625 12.164062 29.765625 11.085938 C 18.011719 13.207031 11.460938 21.445312 9.386719 24.46875 C 9.789062 24.710938 10.257812 24.882812 10.777344 24.988281 C 11.148438 23.667969 13.457031 21.695312 14.503906 21 C 13.617188 22.046875 12.660156 24.1875 12.832031 25.070312 C 16.832031 25.03125 19.167969 19.925781 25.535156 20.441406 L 24.394531 21.199219 C 24.644531 22.386719 24.351562 24.605469 21.480469 25.039062 C 22.285156 25.261719 22.972656 25.605469 23.476562 26.117188 C 17.425781 24.804688 14.703125 27.46875 10.953125 26.898438 C 8.117188 30.828125 6.191406 33.976562 4.128906 38.15625 C 5.800781 37.265625 9.691406 37.078125 11.824219 37.871094 L 11.933594 39.824219 C 9.882812 40.390625 9.570312 42.992188 12.746094 44.144531 C 14.824219 44.898438 18.742188 44.960938 20.226562 40.410156 C 21.5625 36.3125 24.203125 29.945312 31.140625 27.609375 L 30.320312 29.144531 C 32.335938 30.929688 34.230469 34.445312 34.667969 37.714844 C 29.511719 37.820312 24.828125 39.933594 21.292969 43.453125 C 24.902344 41.378906 28.410156 40.339844 32.9375 40.21875 C 38.664062 40.070312 40.175781 36.578125 38.511719 31.855469 C 40.660156 33.503906 41.289062 36.863281 39.875 39.285156 C 38.765625 41.179688 36.398438 42.078125 33.324219 42.003906 C 29.820312 41.925781 26.738281 42.488281 24.613281 43.347656 L 28.320312 49.738281 L 29.523438 47.664062 L 33.414062 54.382812 L 55.121094 16.929688 C 53.0625 15.605469 49.5 14.21875 46.820312 13.519531 "/>
</g>
</svg>
